<svg width="268" height="267" viewBox="0 0 268 267" fill="none" xmlns="http://www.w3.org/2000/svg">
<path d="M74.718 62.2511L80.4185 64.6835L86.1189 67.1159L88.1508 62.0722L90.18 57.0286L83.9188 55.9419L77.6604 54.8552L76.1892 58.5532L74.718 62.2511Z" fill="#D1B7E5" stroke="black" stroke-width="0.801" stroke-miterlimit="10" stroke-linecap="round"/>
<path d="M77.1477 57.0178L82.712 58.6839L88.2736 60.3526" fill="#D1B7E5"/>
<path d="M77.1477 57.0178L82.712 58.6839L88.2736 60.3526" stroke="black" stroke-width="0.801" stroke-miterlimit="10" stroke-linecap="round"/>
<path d="M50.4023 49.921L52.6265 50.981L54.8506 52.0383V49.921V47.801L52.6265 48.861L50.4023 49.921Z" fill="#F9851C" stroke="black" stroke-width="0.801" stroke-miterlimit="10" stroke-linecap="round"/>
<path d="M99.6825 220.71L146.909 221.778L194.134 222.846C194.134 222.846 203.094 226.686 212.212 226.109C221.33 225.532 230.611 220.542 231.252 202.88C231.252 202.88 231.252 200.282 229.962 192.213C228.673 184.145 226.088 170.613 220.924 148.719C220.001 144.786 218.634 140.97 216.85 137.345C215.068 133.721 212.858 130.323 210.266 127.226C209.983 126.889 209.694 126.553 209.398 126.216C209.103 125.88 208.801 125.549 208.493 125.223C202.966 119.332 196.163 114.785 188.607 111.929C184.047 110.178 179.286 109.006 174.434 108.442C174.434 108.442 156.388 106.01 137.127 108.346C117.865 110.682 97.3729 117.784 92.5108 136.854C91.0762 141.838 89.6433 146.815 88.2121 151.787C86.781 156.758 85.3481 161.735 83.9134 166.718C82.5322 162.034 81.15 157.35 79.7669 152.665L75.6177 138.616L59.4189 143.179L43.22 147.742C44.4375 152.913 45.6559 158.085 46.8752 163.257L50.5278 178.775C52.3968 187.429 53.5929 192.544 54.3085 195.5C55.024 198.456 55.2617 199.238 55.2617 199.238C55.8662 202.29 56.9085 205.239 58.3562 207.993C60.567 212.244 64.2676 217.127 70.3712 220.542C77.4253 224.472 84.4902 224.651 89.9209 223.781C93.3115 223.258 96.6029 222.222 99.6825 220.71Z" fill="#104FC1" stroke="black" stroke-width="0.801" stroke-miterlimit="10" stroke-linecap="round"/>
<path d="M156.262 204.212L163.506 207.051L165.976 208.017L169.981 210.297C172.117 211.512 174.52 212.885 175.62 213.501C177.689 214.668 180.247 216.065 183.326 217.64C186.404 219.215 190.001 220.972 194.144 222.865L183.833 222.585L173.521 222.318L164.897 213.272L156.262 204.212Z" fill="black" stroke="black" stroke-width="0.801" stroke-miterlimit="10" stroke-linecap="round"/>
<path d="M125.891 110.295L121.51 123.824L117.128 137.353L127.429 130.774L137.733 124.195L131.811 117.245L125.891 110.295Z" fill="#104FC1" stroke="black" stroke-width="0.801" stroke-miterlimit="10" stroke-linecap="round"/>
<path d="M119.117 188.961C119.117 189.298 119 189.624 118.787 189.884C118.573 190.145 118.275 190.322 117.945 190.388C117.615 190.453 117.272 190.402 116.975 190.243C116.678 190.084 116.446 189.827 116.317 189.516C116.189 189.205 116.172 188.859 116.27 188.536C116.368 188.214 116.575 187.936 116.855 187.75C117.136 187.563 117.472 187.479 117.807 187.513C118.142 187.546 118.455 187.695 118.693 187.933C118.964 188.207 119.117 188.576 119.117 188.961Z" fill="black" stroke="black" stroke-width="0.801" stroke-miterlimit="10" stroke-linecap="round"/>
<path d="M137.733 124.195L145.783 115.766L153.833 107.334L155.408 123.869L156.983 140.405L147.358 132.301L137.733 124.195Z" fill="#104FC1" stroke="black" stroke-width="0.801" stroke-miterlimit="10" stroke-linecap="round"/>
<path d="M130.364 115.547L134.048 119.872L137.733 124.195L141.975 119.752L146.218 115.312L138.291 115.429L130.364 115.547Z" fill="#FFF8F8" stroke="black" stroke-width="0.801" stroke-miterlimit="10" stroke-linecap="round"/>
<path d="M137.674 124.521L129.576 172.8L121.48 221.076L136.499 221.45L151.521 221.821L144.656 173.174L137.791 124.521C137.79 124.506 137.783 124.493 137.772 124.484C137.761 124.474 137.747 124.469 137.733 124.47C137.718 124.47 137.705 124.475 137.694 124.484C137.683 124.494 137.676 124.507 137.674 124.521Z" fill="#FFF8F8" stroke="black" stroke-width="0.801" stroke-miterlimit="10" stroke-linecap="round"/>
<path d="M185.357 157.298C186.046 161.174 186.734 165.052 187.421 168.931C188.108 172.809 188.796 176.686 189.485 180.561" stroke="black" stroke-width="0.801" stroke-miterlimit="10" stroke-linecap="round"/>
<path d="M129.867 169.641H126.099H122.332L122.02 171.497L121.707 173.352H126.057H130.406L130.136 171.497L129.867 169.641Z" fill="#F7CE21" stroke="black" stroke-width="0.801" stroke-miterlimit="10" stroke-linecap="round"/>
<path d="M135.458 208.063L132.932 190.708L130.406 173.353H126.057H121.707L118.829 190.441L115.951 207.526L125.704 207.796L135.458 208.063Z" fill="#14AF6C" stroke="black" stroke-width="0.801" stroke-miterlimit="10" stroke-linecap="round"/>
<path d="M117.291 199.569C119.133 198.737 121.078 198.158 123.074 197.847C126.42 197.313 130.673 197.46 134.304 200.138" stroke="black" stroke-width="0.801" stroke-miterlimit="10" stroke-linecap="round"/>
<path d="M150.418 169.641H146.65H142.883L142.571 171.497L142.258 173.352H146.608H150.957L150.687 171.497L150.418 169.641Z" fill="#F7CE21" stroke="black" stroke-width="0.801" stroke-miterlimit="10" stroke-linecap="round"/>
<path d="M156.006 208.063L153.483 190.708L150.957 173.353H146.608H142.258L139.377 190.441L136.499 207.526L146.253 207.796L156.006 208.063Z" fill="#14AF6C" stroke="black" stroke-width="0.801" stroke-miterlimit="10" stroke-linecap="round"/>
<path d="M135.674 207.526C135.674 209.072 134.561 210.463 132.764 211.483C130.967 212.503 128.492 213.122 125.742 213.122C122.992 213.122 120.517 212.495 118.72 211.483C116.923 210.471 115.812 209.08 115.812 207.526C115.812 205.972 116.923 204.589 118.72 203.572C120.517 202.554 122.992 201.932 125.742 201.932C128.492 201.932 130.967 202.56 132.764 203.572C134.561 204.583 135.674 205.983 135.674 207.526Z" fill="black" stroke="black" stroke-width="0.801" stroke-miterlimit="10" stroke-linecap="round"/>
<path d="M156.262 207.526C156.262 209.072 155.154 210.463 153.368 211.483C151.582 212.503 149.11 213.122 146.381 213.122C143.652 213.122 141.182 212.495 139.393 211.483C137.605 210.471 136.499 209.08 136.499 207.526C136.499 205.972 137.605 204.589 139.393 203.572C141.182 202.554 143.652 201.932 146.381 201.932C149.11 201.932 151.579 202.56 153.368 203.572C155.157 204.583 156.262 205.983 156.262 207.526Z" fill="black" stroke="black" stroke-width="0.801" stroke-miterlimit="10" stroke-linecap="round"/>
<path d="M137.839 199.569C139.682 198.737 141.628 198.158 143.625 197.847C146.971 197.313 151.224 197.46 154.853 200.138" stroke="black" stroke-width="0.801" stroke-miterlimit="10" stroke-linecap="round"/>
<path d="M83.8414 166.314L84.5143 169.641L85.1871 172.971" stroke="black" stroke-width="0.801" stroke-miterlimit="10" stroke-linecap="round"/>
<path d="M103.829 163.038C103.137 172.65 102.446 182.262 101.757 191.874C101.068 201.486 100.379 211.098 99.6879 220.71" stroke="black" stroke-width="0.801" stroke-miterlimit="10" stroke-linecap="round"/>
<path d="M140.104 186.134L136.192 186.195L132.283 186.257L131.832 183.151L131.381 180.049H136.256H141.134L140.619 183.09L140.104 186.134Z" fill="black" stroke="black" stroke-width="0.801" stroke-miterlimit="10" stroke-linecap="round"/>
<path d="M171.172 174.717C167.849 173.281 164.381 172.206 160.828 171.513C155.08 170.41 148.175 170.317 143.553 174.346L135.602 180.657L127.645 186.975C126.897 187.553 126.248 188.249 125.723 189.036C124.975 190.216 124.655 191.706 126.404 192.934C125.973 193.626 125.648 194.38 125.443 195.169C125.176 196.336 125.325 197.604 127.01 198.004C126.644 198.682 126.412 199.423 126.326 200.188C126.252 201.297 126.706 202.442 128.828 202.591C128.517 203.087 128.309 203.64 128.217 204.217C128.127 204.678 128.216 205.156 128.468 205.552C129.151 206.49 130.094 206.527 131.028 206.199C131.963 205.87 132.881 205.173 133.522 204.642C134.505 203.825 135.45 202.987 136.414 202.17C137.374 201.34 138.378 200.561 139.42 199.836C141.17 198.639 143.007 197.573 144.915 196.648C146.512 195.872 148.156 195.196 149.836 194.622C150.48 194.4 151.138 194.222 151.806 194.088C152.474 193.955 153.15 193.876 153.83 193.85C154.898 193.81 156.022 193.901 156.383 194.384C156.743 194.867 156.353 195.754 154.423 197.297C154.588 198.397 154.752 199.495 154.914 200.592C155.076 201.688 155.24 202.785 155.405 203.884L160.7 205.945L165.989 208.017L168.587 191.367L171.185 174.717" fill="#FFC0C0"/>
<path d="M171.172 174.717C167.849 173.281 164.381 172.206 160.828 171.513C155.08 170.41 148.175 170.317 143.553 174.346L135.602 180.657L127.645 186.975C126.897 187.553 126.248 188.249 125.723 189.036C124.975 190.216 124.655 191.706 126.404 192.934C125.973 193.626 125.648 194.38 125.443 195.169C125.176 196.336 125.325 197.604 127.01 198.004C126.644 198.682 126.412 199.423 126.326 200.188C126.252 201.297 126.706 202.442 128.828 202.591C128.517 203.087 128.309 203.64 128.217 204.217C128.127 204.678 128.216 205.156 128.468 205.552C129.151 206.49 130.094 206.527 131.028 206.199C131.963 205.87 132.881 205.173 133.522 204.642C134.505 203.825 135.45 202.987 136.414 202.17C137.374 201.34 138.378 200.561 139.42 199.836C141.17 198.639 143.007 197.573 144.915 196.648C146.512 195.872 148.156 195.196 149.836 194.622C150.48 194.4 151.138 194.222 151.806 194.088C152.474 193.955 153.15 193.876 153.83 193.85C154.898 193.81 156.022 193.901 156.383 194.384C156.743 194.867 156.353 195.754 154.423 197.297C154.588 198.397 154.752 199.495 154.914 200.592C155.076 201.688 155.24 202.785 155.405 203.884L160.7 205.945L165.989 208.017L168.587 191.367L171.185 174.717" stroke="black" stroke-width="0.801" stroke-miterlimit="10" stroke-linecap="round"/>
<path d="M126.396 192.926L134.443 186.804L142.491 180.679" stroke="black" stroke-width="0.801" stroke-miterlimit="10" stroke-linecap="round"/>
<path d="M127.002 197.997L134.935 192.128L142.87 186.257" stroke="black" stroke-width="0.801" stroke-miterlimit="10" stroke-linecap="round"/>
<path d="M128.82 202.57L135.845 197.348L142.87 192.128" stroke="black" stroke-width="0.801" stroke-miterlimit="10" stroke-linecap="round"/>
<path d="M125.405 169.641C123.597 162.272 122.305 154.786 121.539 147.237C120.292 134.822 120.412 119.984 125.888 110.295" stroke="black" stroke-width="0.801" stroke-miterlimit="10" stroke-linecap="round"/>
<path d="M146.608 169.641C150.184 162.156 153.131 154.386 155.419 146.412C159.09 133.481 161.293 117.904 155.453 107.321" stroke="black" stroke-width="0.801" stroke-miterlimit="10" stroke-linecap="round"/>
<path d="M122.685 163.861C122.684 164.197 122.568 164.524 122.354 164.784C122.14 165.044 121.843 165.222 121.512 165.287C121.182 165.353 120.839 165.302 120.542 165.143C120.246 164.984 120.013 164.727 119.884 164.415C119.756 164.104 119.739 163.758 119.837 163.436C119.936 163.114 120.142 162.836 120.423 162.649C120.703 162.462 121.039 162.379 121.374 162.412C121.709 162.446 122.022 162.594 122.26 162.833C122.395 162.968 122.502 163.128 122.575 163.304C122.648 163.481 122.685 163.67 122.685 163.861Z" fill="black" stroke="black" stroke-width="0.801" stroke-miterlimit="10" stroke-linecap="round"/>
<path d="M191.405 71.9646C191.405 72.4051 191.138 72.811 190.655 73.11C190.089 73.4295 189.453 73.6038 188.803 73.6173C188.154 73.6309 187.511 73.4831 186.933 73.1874C186.449 72.9071 186.148 72.5146 186.132 72.074C186.116 71.6335 186.399 71.2276 186.879 70.9286C187.445 70.6091 188.082 70.4348 188.732 70.4213C189.382 70.4077 190.025 70.5555 190.604 70.8512C191.095 71.1315 191.405 71.524 191.405 71.9646Z" fill="black" stroke="black" stroke-width="0.801" stroke-miterlimit="10" stroke-linecap="round"/>
<path d="M191.231 72.0259L192.959 64.8169L194.684 57.6079C194.69 57.5796 194.705 57.5542 194.727 57.5358C194.75 57.5173 194.778 57.507 194.807 57.5064C194.835 57.5054 194.864 57.514 194.887 57.531C194.91 57.5479 194.927 57.5722 194.935 57.5999L196.78 60.7852L198.614 63.9518" stroke="black" stroke-width="1.335" stroke-miterlimit="10" stroke-linecap="round"/>
<path d="M169.909 95.0733C171.139 94.4387 172.29 93.6607 173.337 92.7557C174.606 91.6578 175.675 90.3479 176.496 88.8842C176.878 88.217 177.216 87.5248 177.505 86.8123C177.797 86.0938 177.977 85.3346 178.039 84.5615C178.072 83.7375 177.845 82.9241 177.39 82.2359C176.923 81.5524 176.215 81.1012 175.297 81.3094C175.035 81.3666 174.792 81.4919 174.594 81.6729C174.395 81.8539 174.248 82.084 174.168 82.34C173.997 82.8581 173.98 83.4147 174.12 83.942C174.314 84.7217 175.065 85.8831 176.143 86.863C177.222 87.8429 178.624 88.6466 180.127 88.7133C181.839 88.7854 183.657 87.9123 185.144 86.297C186.631 84.6816 187.782 82.3561 188.169 79.5232" stroke="black" stroke-width="0.801" stroke-miterlimit="10" stroke-linecap="round"/>
<path d="M75.583 138.466C73.0332 129.655 70.6595 121.325 68.2886 113C65.9176 104.675 63.5467 96.3443 60.9941 87.5306C60.9285 87.2995 60.8455 87.0737 60.7458 86.8551C60.6456 86.6377 60.5249 86.4303 60.3854 86.2356C59.8644 85.5069 59.1112 84.9769 58.2494 84.7324C57.5079 84.5047 56.7064 84.5796 56.0199 84.9407C55.4733 85.2717 55.056 85.7794 54.8371 86.3798C54.5832 87.0552 54.5132 87.7858 54.6342 88.4971L56.0226 97.2334L57.4137 105.972C56.9786 105.71 56.5097 105.507 56.0199 105.372C55.1449 105.107 54.2075 105.135 53.3499 105.452C52.3311 105.87 51.5087 106.659 51.0484 107.66C50.5252 108.773 50.3807 110.027 50.6372 111.23C50.075 110.534 49.3297 110.008 48.4852 109.713C47.6886 109.43 46.8234 109.402 46.0101 109.633C44.9607 109.962 44.0836 110.692 43.5697 111.665C43.0012 112.712 42.8368 113.932 43.1078 115.093C42.6519 114.819 42.1617 114.606 41.65 114.46C40.8034 114.192 39.8886 114.239 39.0734 114.591C38.9187 114.666 38.7713 114.756 38.6329 114.858C38.3531 115.06 38.1001 115.297 37.88 115.563C37.0229 116.596 36.7612 117.907 36.7319 119.034C36.7194 119.861 36.8091 120.686 36.9989 121.49L40.0854 134.539L43.1719 147.587L59.3708 143.024L75.583 138.466Z" fill="#FFC0C0" stroke="black" stroke-width="0.801" stroke-miterlimit="10" stroke-linecap="round"/>
<path d="M37.2472 122.489C37.7011 123.381 38.163 124.272 38.6329 125.159C39.1028 126.045 39.5834 126.926 40.0694 127.802C40.4645 128.512 40.8383 129.236 41.2255 129.952C41.6126 130.667 42.0265 131.375 42.4697 132.053C42.9134 132.747 43.4231 133.396 43.9916 133.991C44.5427 134.599 45.2652 135.024 46.0635 135.211C46.6693 135.318 47.2932 135.206 47.8242 134.895C48.3552 134.585 48.7588 134.096 48.9631 133.516C49.1469 132.867 49.1698 132.184 49.0299 131.524C48.9178 130.827 48.7148 130.133 48.568 129.546C47.6602 127.137 46.7533 124.729 45.8473 122.321L43.1265 115.096" stroke="black" stroke-width="0.801" stroke-miterlimit="10" stroke-linecap="round"/>
<path d="M48.4906 129.353C48.8642 130.471 49.4754 131.494 50.2822 132.352C50.9764 133.041 51.7293 133.39 52.4315 133.316C52.7463 133.278 53.0474 133.165 53.3099 132.987C53.4875 132.87 53.6514 132.733 53.7986 132.579C54.5996 131.778 54.8666 130.611 54.9173 129.439C54.9198 128.352 54.8079 127.269 54.5835 126.206C54.0362 123.269 53.3073 120.332 52.589 117.707C51.8708 115.082 51.1633 112.81 50.656 111.229" stroke="black" stroke-width="0.801" stroke-miterlimit="10" stroke-linecap="round"/>
<path d="M55.0267 128.302C55.2566 128.887 55.5608 129.441 55.9319 129.949C56.4979 130.718 57.3309 131.487 58.4417 131.599C58.5949 131.617 58.7495 131.622 58.9036 131.612C59.1312 131.6 59.3551 131.55 59.5657 131.463C60.2092 131.196 60.7032 130.582 61.0049 129.738C61.3303 128.737 61.4279 127.676 61.2906 126.633C60.6444 123.192 59.9992 119.749 59.3548 116.303C58.7104 112.857 58.0652 109.413 57.4191 105.972" stroke="black" stroke-width="0.801" stroke-miterlimit="10" stroke-linecap="round"/>
<path d="M68.9668 115.376C66.3182 115.219 63.6776 115 61.0396 114.754C58.4016 114.508 55.7637 114.22 53.1257 113.953C51.9563 113.836 50.0793 113.48 48.4078 113.574C46.7364 113.667 45.2733 114.209 44.9368 115.881C44.6405 117.328 45.2839 118.212 46.2558 118.818C47.2277 119.424 48.528 119.766 49.5372 120.118C51.2514 120.719 52.541 121.17 53.4461 121.525C54.3513 121.88 54.8746 122.137 55.0481 122.345C55.8491 123.239 55.8865 124.246 55.7931 125.53C55.6996 126.814 55.454 128.379 55.6489 130.39C55.7665 131.586 56.0209 132.765 56.4072 133.903C56.9434 135.474 57.6792 136.969 58.5966 138.351" fill="#FFC0C0"/>
<path d="M68.9668 115.376C66.3182 115.219 63.6776 115 61.0396 114.754C58.4016 114.508 55.7637 114.22 53.1257 113.953C51.9563 113.836 50.0793 113.48 48.4078 113.574C46.7364 113.667 45.2733 114.209 44.9368 115.881C44.6405 117.328 45.2839 118.212 46.2558 118.818C47.2277 119.424 48.528 119.766 49.5372 120.118C51.2514 120.719 52.541 121.17 53.4461 121.525C54.3513 121.88 54.8746 122.137 55.0481 122.345C55.8491 123.239 55.8865 124.246 55.7931 125.53C55.6996 126.814 55.454 128.379 55.6489 130.39C55.7665 131.586 56.0209 132.765 56.4072 133.903C56.9434 135.474 57.6792 136.969 58.5966 138.351" stroke="black" stroke-width="0.801" stroke-miterlimit="10" stroke-linecap="round"/>
<path d="M81.2327 40.8137C81.0565 40.8137 80.8803 40.8137 80.6987 40.8324C80.5172 40.8511 80.349 40.8618 80.1647 40.8858C79.9058 40.9269 79.6491 40.9813 79.3958 41.0487C78.8012 41.2041 78.2235 41.4178 77.671 41.6868C76.4712 42.3489 75.3097 43.078 74.192 43.8709C72.5259 44.9976 70.4219 46.4982 68.051 48.2977C67.8195 46.6856 67.0532 45.1981 65.8749 44.0738C64.6719 42.8625 63.0429 42.1696 61.3359 42.1434C60.4272 42.1578 59.5306 42.3542 58.6992 42.7211C57.8678 43.088 57.1183 43.6178 56.4952 44.2794C55.251 45.5636 54.474 47.2698 54.474 48.9546C54.4849 50.4677 55.0922 51.9155 56.1641 52.9836C57.2897 54.1081 58.7621 54.8194 60.3427 55.0021C60.7864 57.5668 62.093 59.903 64.046 61.6237C65.8642 63.191 68.115 64.0267 70.3472 63.9012C72.6353 63.7624 74.4269 62.6169 75.6738 61.4582C76.4771 60.7174 77.1719 59.8671 77.7377 58.9323C78.9705 59.1512 80.2404 59.0071 81.3928 58.5174C82.5452 58.0277 83.5304 57.2136 84.2285 56.1742C84.5413 55.7142 84.7943 55.2163 84.9814 54.6924C85.5734 54.6834 86.1618 54.6 86.7329 54.4441C87.8176 54.1573 88.8145 53.6067 89.6349 52.8413C90.4553 52.0759 91.0736 51.1195 91.4348 50.0573C91.6587 49.4312 91.7944 48.777 91.838 48.1135C93.092 48.1616 94.3405 47.9223 95.4879 47.414C97.3409 46.5729 99.2499 44.744 99.4929 40.8137H81.2327Z" fill="#D1B7E5" stroke="black" stroke-width="0.801" stroke-miterlimit="10" stroke-linecap="round"/>
<path d="M59.5738 47.4726C59.5738 47.6851 59.4894 47.8888 59.3392 48.039C59.189 48.1892 58.9852 48.2736 58.7728 48.2736C58.5604 48.2736 58.3566 48.1892 58.2064 48.039C58.0562 47.8888 57.9718 47.6851 57.9718 47.4726C57.9715 47.3664 57.9924 47.2611 58.0332 47.163C58.074 47.065 58.1339 46.976 58.2094 46.9012C58.2844 46.8262 58.3735 46.7668 58.4716 46.7265C58.5696 46.6861 58.6748 46.6657 58.7808 46.6663C58.8869 46.6657 58.992 46.6861 59.0901 46.7265C59.1882 46.7668 59.2773 46.8262 59.3522 46.9012C59.4974 47.0557 59.5769 47.2606 59.5738 47.4726Z" fill="black"/>
<path d="M91.8407 48.1133H86.1189H80.3998" stroke="black" stroke-width="0.801" stroke-miterlimit="10" stroke-linecap="round"/>
<path d="M84.9841 54.6924H81.5799H78.173" stroke="black" stroke-width="0.801" stroke-miterlimit="10" stroke-linecap="round"/>
<path d="M76.8167 60.3528L82.0659 62.2512L87.3124 64.1522" fill="#D1B7E5"/>
<path d="M76.8167 60.3528L82.0659 62.2512L87.3124 64.1522" stroke="black" stroke-width="0.801" stroke-miterlimit="10" stroke-linecap="round"/>
<path d="M194.134 222.865C190.942 221.396 187.695 219.829 184.393 218.163C181.092 216.497 177.743 214.723 174.349 212.842C172.911 212.042 171.494 211.241 170.098 210.439C168.703 209.636 167.329 208.829 165.976 208.017C166.841 202.465 167.707 196.915 168.574 191.367C169.441 185.819 170.307 180.269 171.172 174.717L186.028 179.691L200.883 184.668" stroke="black" stroke-width="0.801" stroke-miterlimit="10" stroke-linecap="round"/>
<path d="M163.776 98.7339L156.615 95.6982L149.454 92.6624C148.753 94.639 148.315 96.6992 148.151 98.79C147.782 103.302 148.894 107.812 151.318 111.635C152.001 112.714 152.778 113.729 153.641 114.671C155.039 113.656 156.331 112.501 157.496 111.224C159.707 108.787 161.441 105.957 162.609 102.88C163.115 101.534 163.506 100.147 163.776 98.7339Z" fill="black" stroke="black" stroke-width="0.801" stroke-miterlimit="10" stroke-linecap="round"/>
<path d="M149.881 108.936C149.652 108.402 149.489 107.98 149.371 107.63C149.254 107.281 149.184 107.016 149.136 106.829C149.102 106.691 149.072 106.562 149.048 106.445C149.024 106.328 149.005 106.231 148.989 106.146L149.142 106.279L149.331 106.432C149.331 106.432 149.395 106.482 149.497 106.552C149.598 106.621 149.737 106.717 149.878 106.803C150.66 107.272 151.542 107.545 152.452 107.599C153.361 107.653 154.27 107.486 155.101 107.113C155.932 106.739 156.661 106.171 157.225 105.455C157.788 104.739 158.171 103.898 158.339 103.002C158.507 102.107 158.457 101.184 158.191 100.313C157.926 99.4413 157.453 98.6469 156.815 97.9974C156.176 97.3478 155.389 96.8624 154.522 96.5825C153.655 96.3026 152.734 96.2364 151.836 96.3898C150.5 96.6224 149.285 97.3067 148.394 98.3282C148.394 97.8983 148.41 97.4204 148.458 96.9051C148.508 96.3467 148.588 95.7914 148.698 95.2417C148.797 94.7397 148.917 94.2671 149.048 93.8346C149.179 93.402 149.315 93.0042 149.454 92.6464L137.233 87.464L125.013 82.2815C124.707 82.6838 124.408 83.0994 124.116 83.5284C123.824 83.9574 123.546 84.397 123.283 84.8474C119.942 90.5158 119.011 96.8784 120.201 102.587C121.392 108.295 124.714 113.35 129.875 116.391C133.501 118.519 137.701 119.464 141.89 119.093C146.138 118.71 150.2 117.174 153.638 114.65C153.098 114.055 152.591 113.431 152.119 112.781C151.697 112.202 151.352 111.676 151.077 111.222C150.925 110.971 150.736 110.648 150.53 110.26C150.324 109.873 150.103 109.443 149.881 108.936Z" fill="#FFC0C0" stroke="black" stroke-width="0.801" stroke-miterlimit="10" stroke-linecap="round"/>
<path d="M146.098 105.665C145.742 106.268 145.189 106.729 144.532 106.969C143.874 107.21 143.154 107.215 142.493 106.984C141.833 106.753 141.273 106.3 140.909 105.703C140.544 105.105 140.399 104.4 140.496 103.707C140.594 103.014 140.929 102.376 141.444 101.902C141.959 101.428 142.622 101.148 143.321 101.108C144.02 101.069 144.711 101.273 145.276 101.686C145.841 102.098 146.246 102.694 146.421 103.372C146.52 103.756 146.543 104.157 146.487 104.551C146.432 104.944 146.3 105.323 146.098 105.665Z" fill="#EF3F3F" stroke="black" stroke-width="0.801" stroke-miterlimit="10" stroke-linecap="round"/>
<path d="M126.743 105.596C126.39 106.2 125.838 106.663 125.181 106.906C124.525 107.149 123.805 107.157 123.143 106.928C122.482 106.699 121.92 106.248 121.554 105.652C121.187 105.055 121.039 104.35 121.135 103.657C121.23 102.964 121.563 102.325 122.076 101.849C122.59 101.374 123.252 101.091 123.951 101.049C124.649 101.007 125.341 101.209 125.907 101.62C126.474 102.031 126.881 102.625 127.058 103.302C127.261 104.078 127.148 104.903 126.743 105.596Z" fill="#EF3F3F" stroke="black" stroke-width="0.801" stroke-miterlimit="10" stroke-linecap="round"/>
<path d="M126.943 97.0277C126.864 97.1708 126.758 97.2966 126.63 97.3976C126.501 97.4987 126.354 97.573 126.197 97.6162C126.039 97.6593 125.875 97.6704 125.713 97.6489C125.551 97.6273 125.395 97.5734 125.254 97.4905C125.114 97.4076 124.991 97.2972 124.894 97.1661C124.797 97.0349 124.727 96.8856 124.688 96.7269C124.65 96.5682 124.644 96.4034 124.67 96.2423C124.696 96.0812 124.755 95.927 124.842 95.7888C125.006 95.5103 125.275 95.3083 125.588 95.2272C125.901 95.1462 126.234 95.1926 126.513 95.3563C126.791 95.5221 126.993 95.7907 127.074 96.1039C127.114 96.2589 127.123 96.4203 127.101 96.5788C127.078 96.7374 127.025 96.8899 126.943 97.0277Z" fill="#231F20"/>
<path d="M139.607 98.6538C139.528 98.7968 139.422 98.9226 139.293 99.0237C139.165 99.1248 139.018 99.1991 138.861 99.2422C138.703 99.2854 138.539 99.2965 138.377 99.2749C138.215 99.2533 138.059 99.1994 137.918 99.1165C137.778 99.0336 137.655 98.9233 137.558 98.7921C137.461 98.661 137.391 98.5116 137.352 98.3529C137.314 98.1943 137.308 98.0295 137.334 97.8684C137.36 97.7072 137.419 97.553 137.506 97.4149C137.67 97.137 137.938 96.9356 138.251 96.8546C138.564 96.7735 138.896 96.8195 139.174 96.9823C139.313 97.0636 139.434 97.1714 139.53 97.2994C139.627 97.4274 139.697 97.5732 139.737 97.7284C139.777 97.8836 139.787 98.0453 139.764 98.204C139.742 98.3628 139.688 98.5156 139.607 98.6538Z" fill="#231F20"/>
<path d="M128.369 89.979C129.53 89.8818 130.696 89.8675 131.859 89.9363C135.465 90.1519 138.975 91.1777 142.13 92.9374" stroke="black" stroke-width="0.801" stroke-miterlimit="10" stroke-linecap="round"/>
<path d="M131.917 90.3074L130.868 95.9971L129.816 101.684L130.631 101.767L131.442 101.852" stroke="black" stroke-width="0.801" stroke-miterlimit="10" stroke-linecap="round"/>
<path d="M154.076 75.3582C149.323 72.5573 143.842 71.9486 138.657 73.2222C133.204 74.5972 128.387 77.8016 125.013 82.3002L144.394 90.5131L163.776 98.7313C164.682 94.2412 164.267 89.5848 162.582 85.3253C160.927 81.1536 157.936 77.6484 154.076 75.3582Z" fill="#F9851C" stroke="black" stroke-width="0.801" stroke-miterlimit="10" stroke-linecap="round"/>
<path d="M150.271 102.656L152.543 102.288L154.815 101.919" stroke="black" stroke-width="0.801" stroke-miterlimit="10" stroke-linecap="round"/>
<path d="M132.374 85.4159C131.604 87.5263 130.217 89.3562 128.393 90.6677C126.664 91.9235 124.573 92.5799 122.436 92.5367C121.638 92.5117 120.846 92.3825 120.081 92.1523C119.398 91.9425 118.739 91.6596 118.116 91.3086C116.533 90.4197 115.231 89.1054 114.357 87.5145C113.728 86.377 113.36 85.1138 113.28 83.8165C113.2 82.5193 113.41 81.2205 113.895 80.0144C114.194 79.2741 114.599 78.5808 115.096 77.9559C116.201 76.5974 117.662 75.5731 119.315 74.9975C120.981 74.4235 122.786 74.3674 124.433 75.1551C125.407 75.6375 126.243 76.3596 126.86 77.2537C127.27 77.8363 127.604 78.4689 127.854 79.136C127.549 79.419 127.237 79.7261 126.922 80.0518C126.607 80.3776 126.289 80.73 125.969 81.1038C125.795 81.3041 125.63 81.507 125.472 81.7046C125.315 81.9021 125.162 82.0997 125.016 82.2946L128.697 83.8539L132.374 85.4159Z" fill="black" stroke="black" stroke-width="0.801" stroke-miterlimit="10" stroke-linecap="round"/>
<path d="M130.473 76.9814L147.321 84.5696L164.171 92.1551" stroke="black" stroke-width="0.801" stroke-miterlimit="10" stroke-linecap="round"/>
<path d="M135.57 79.2776L133.8 82.2733L132.032 85.2717" stroke="black" stroke-width="0.801" stroke-miterlimit="10" stroke-linecap="round"/>
<path d="M142.202 82.3188L140.531 85.1517L138.859 87.9846" stroke="black" stroke-width="0.801" stroke-miterlimit="10" stroke-linecap="round"/>
<path d="M150.287 86.0542L148.645 88.839L147.006 91.6212" stroke="black" stroke-width="0.801" stroke-miterlimit="10" stroke-linecap="round"/>
<path d="M158.575 89.7734L157.021 92.4087L155.469 95.0413" stroke="black" stroke-width="0.801" stroke-miterlimit="10" stroke-linecap="round"/>
<path d="M129.728 106.066C130.26 106.648 130.931 107.086 131.677 107.339C132.895 107.74 134.614 107.665 136.553 105.767" stroke="black" stroke-width="0.801" stroke-miterlimit="10" stroke-linecap="round"/>
<path d="M185.379 157.42L187.429 168.966C188.109 172.816 188.792 176.665 189.477 180.513C189.48 180.517 189.481 180.522 189.481 180.527C189.481 180.531 189.48 180.536 189.477 180.54C189.473 180.543 189.468 180.544 189.463 180.544C189.457 180.544 189.452 180.543 189.448 180.54L184.268 178.89L179.102 177.24C179.094 177.237 179.088 177.232 179.084 177.225C179.08 177.218 179.079 177.21 179.08 177.202L182.202 167.305C183.241 164.008 184.281 160.709 185.32 157.407C185.323 157.401 185.327 157.395 185.333 157.392C185.339 157.388 185.345 157.386 185.352 157.386C185.36 157.387 185.367 157.391 185.372 157.398C185.377 157.404 185.38 157.412 185.379 157.42Z" fill="black" stroke="black" stroke-width="0.801" stroke-miterlimit="10" stroke-linecap="round"/>
</svg>
