<svg width="268" height="267" viewBox="0 0 268 267" fill="none" xmlns="http://www.w3.org/2000/svg">
<path d="M113.364 213.231C120.023 213.018 126.035 212.89 131.253 212.812C136.47 212.735 140.894 212.713 144.368 212.708C164.235 212.684 179.136 212.663 189.24 212.66C199.343 212.657 204.648 212.66 205.324 212.708C210.023 212.975 212.957 213.066 215.229 212.948C217.245 212.85 219.242 212.509 221.176 211.931C229.928 209.499 234.64 202.664 237.225 194.56C239.809 186.457 240.269 177.085 240.512 169.585C240.57 167.743 240.661 164.923 240.658 161.628C240.656 158.334 240.552 154.566 240.229 150.828C239.617 143.79 238.856 135.035 236.512 126.416C234.168 117.798 230.237 109.328 223.293 102.843C218.409 98.2906 213.093 95.7114 206.418 93.9999C199.743 92.2884 191.701 91.4421 181.374 90.3554C172.277 89.3737 163.097 89.4785 154.025 90.6678C148.977 91.326 143.991 92.3976 139.118 93.8718C136.857 94.5633 134.75 95.2068 132.644 95.9944C130.411 96.8201 128.246 97.8181 126.169 98.9795C117.921 103.599 112.135 110.145 108.088 116.601C104.04 123.058 101.736 129.393 100.446 133.612L98.1766 143.056L95.9098 152.502L86.3779 140.789L76.862 129.086L62.444 141.932L48.026 154.774L49.094 156.141C49.4331 156.569 49.7455 156.969 50.0338 157.335L50.4851 157.914C50.7521 158.253 51.0992 158.699 51.4222 159.116C52.4902 160.488 58.0972 168.779 64.6681 177.83C71.239 186.881 78.7203 196.693 83.5504 201.115C83.8974 201.433 84.3647 201.847 84.9548 202.3C85.6346 202.824 86.3481 203.302 87.0908 203.732C88.0107 204.252 88.9704 204.698 89.961 205.067C92.0817 205.909 94.3383 206.358 96.62 206.391C100.724 206.346 104.692 204.912 107.877 202.322C111.235 199.593 113.626 195.854 114.693 191.661C114.473 195.254 114.252 198.849 114.031 202.445L113.364 213.231Z" fill="#104FC1" stroke="black" stroke-width="0.801" stroke-miterlimit="10" stroke-linecap="round"/>
<path d="M153.347 119.507L148.856 166.109L144.37 212.708H160.364H176.354L164.849 166.109L153.347 119.507Z" fill="#FFF8F8" stroke="black" stroke-width="0.801" stroke-miterlimit="10" stroke-linecap="round"/>
<path d="M147.702 109.019L150.522 114.263L153.347 119.507L155.24 113.595L157.133 107.684L152.418 108.351L147.702 109.019Z" fill="#FFF8F8" stroke="black" stroke-width="0.801" stroke-miterlimit="10" stroke-linecap="round"/>
<path d="M95.9017 152.489L99.8427 157.583L103.784 162.678C103.81 162.712 103.847 162.735 103.889 162.744C103.931 162.753 103.974 162.746 104.012 162.726C104.049 162.705 104.078 162.671 104.093 162.631C104.108 162.591 104.108 162.547 104.093 162.507C103.025 159.611 101.964 156.714 100.911 153.816C99.8569 150.918 98.796 148.022 97.728 145.128L96.8149 148.807L95.9017 152.489Z" fill="black" stroke="black" stroke-width="0.801" stroke-miterlimit="10" stroke-linecap="round"/>
<path d="M117.315 151.237C116.883 158.225 116.451 165.212 116.02 172.196C115.589 179.181 115.158 186.168 114.725 193.156" stroke="black" stroke-width="0.801" stroke-miterlimit="10" stroke-linecap="round"/>
<path d="M139.11 93.8691L135.45 95.0333L134.198 95.4338C134.198 95.4338 133.837 100.592 133.314 108.1C132.791 115.608 132.099 125.469 131.445 134.875L142.392 127.191L153.339 119.506L146.223 106.69L139.11 93.8691Z" fill="#104FC1" stroke="black" stroke-width="0.801" stroke-miterlimit="10" stroke-linecap="round"/>
<path d="M163.736 89.8054L158.54 104.664C156.81 109.614 155.078 114.564 153.344 119.514L166.79 126.558L180.236 133.604C179.526 130.985 176.546 119.987 173.74 109.651L168.309 89.6265L166.056 89.7172L163.736 89.8054Z" fill="#104FC1" stroke="black" stroke-width="0.801" stroke-miterlimit="10" stroke-linecap="round"/>
<path d="M168.272 74.4397L160.735 76.3621L153.197 78.2845C153.836 80.2801 154.733 82.1831 155.867 83.9449C158.307 87.7579 161.924 90.672 166.168 92.2459C167.365 92.6898 168.599 93.0275 169.855 93.2552C170.351 91.6015 170.676 89.9018 170.827 88.1822C171.111 84.9042 170.777 81.602 169.842 78.4474C169.431 77.0703 168.906 75.7298 168.272 74.4397Z" fill="black" stroke="black" stroke-width="0.801" stroke-miterlimit="10" stroke-linecap="round"/>
<path d="M163.397 90.9775C162.897 90.7105 162.505 90.4436 162.201 90.246C161.896 90.0484 161.667 89.8722 161.528 89.752L161.226 89.501L160.996 89.2981L161.202 89.3115H161.442H161.648C161.773 89.3115 161.939 89.2981 162.104 89.2768C163.014 89.1819 163.886 88.8678 164.648 88.3614C165.409 87.855 166.036 87.1714 166.475 86.3693C166.913 85.5673 167.151 84.6707 167.167 83.7566C167.183 82.8425 166.977 81.9381 166.567 81.1212C166.156 80.3043 165.554 79.5991 164.811 79.0663C164.068 78.5335 163.207 78.189 162.301 78.0623C161.396 77.9356 160.473 78.0306 159.612 78.339C158.752 78.6474 157.979 79.1601 157.36 79.833C156.438 80.8263 155.885 82.1065 155.795 83.4588C155.528 83.1171 155.261 82.7273 154.994 82.2894C154.696 81.8148 154.423 81.3246 154.177 80.8209C153.953 80.359 153.763 79.9104 153.603 79.4859C153.443 79.0613 153.315 78.6608 153.208 78.2924L140.344 81.5711L127.483 84.8499C127.483 85.3599 127.496 85.8725 127.525 86.3878C127.555 86.9031 127.597 87.4211 127.659 87.9418C128.433 94.4752 131.546 100.104 135.954 103.922C140.363 107.74 146.06 109.753 152.012 109.048C156.193 108.546 160.113 106.753 163.226 103.916C166.374 101.039 168.676 97.3546 169.882 93.2631C169.094 93.1162 168.315 92.9291 167.546 92.7024C166.857 92.4968 166.264 92.2859 165.773 92.0909C165.506 91.9841 165.151 91.84 164.753 91.6584C164.355 91.4768 163.88 91.2419 163.397 90.9775Z" fill="#FFC0C0" stroke="black" stroke-width="0.801" stroke-miterlimit="10" stroke-linecap="round"/>
<path d="M158.401 90.6625C158.483 91.3575 158.322 92.0594 157.945 92.6488C157.567 93.2381 156.997 93.6784 156.332 93.8947C155.666 94.1109 154.946 94.0896 154.294 93.8346C153.643 93.5795 153.1 93.1064 152.758 92.4958C152.416 91.8853 152.296 91.175 152.419 90.4861C152.542 89.7972 152.9 89.1722 153.432 88.7176C153.964 88.263 154.637 88.0069 155.337 87.993C156.037 87.9791 156.719 88.2082 157.269 88.6413C157.582 88.8867 157.843 89.1917 158.037 89.5386C158.232 89.8855 158.355 90.2675 158.401 90.6625Z" fill="#EF3F3F" stroke="black" stroke-width="0.801" stroke-miterlimit="10" stroke-linecap="round"/>
<path d="M142.96 102.33C143.043 103.025 142.881 103.727 142.504 104.317C142.127 104.906 141.556 105.346 140.891 105.563C140.225 105.779 139.505 105.758 138.854 105.503C138.202 105.247 137.659 104.774 137.317 104.164C136.975 103.553 136.855 102.843 136.978 102.154C137.101 101.465 137.459 100.84 137.991 100.386C138.523 99.931 139.196 99.6749 139.896 99.661C140.596 99.6471 141.279 99.8762 141.828 100.309C142.141 100.555 142.402 100.86 142.596 101.207C142.79 101.554 142.914 101.936 142.96 102.33Z" fill="#EF3F3F" stroke="black" stroke-width="0.801" stroke-miterlimit="10" stroke-linecap="round"/>
<path d="M137.93 95.3911C137.955 95.5531 137.948 95.7185 137.908 95.8775C137.868 96.0364 137.796 96.1857 137.697 96.3163C137.598 96.4469 137.473 96.5562 137.331 96.6377C137.189 96.7192 137.032 96.7712 136.869 96.7906C136.706 96.8099 136.541 96.7963 136.384 96.7505C136.226 96.7047 136.08 96.6277 135.953 96.524C135.826 96.4202 135.721 96.292 135.645 96.1469C135.568 96.0018 135.522 95.8429 135.509 95.6795C135.483 95.5175 135.491 95.3521 135.531 95.1931C135.571 95.0342 135.643 94.8849 135.742 94.7543C135.841 94.6237 135.965 94.5144 136.108 94.4329C136.25 94.3514 136.407 94.2994 136.57 94.28C136.733 94.2607 136.898 94.2743 137.055 94.3201C137.213 94.3659 137.359 94.4429 137.486 94.5467C137.613 94.6504 137.718 94.7786 137.794 94.9237C137.87 95.0688 137.917 95.2277 137.93 95.3911Z" fill="#231F20"/>
<path d="M148.992 89.0151C149.02 89.2547 148.977 89.4973 148.868 89.7123C148.758 89.9274 148.587 90.1051 148.377 90.2231C148.166 90.341 147.926 90.394 147.685 90.3751C147.445 90.3563 147.215 90.2666 147.026 90.1173C146.836 89.9681 146.695 89.7659 146.62 89.5365C146.545 89.3071 146.54 89.0607 146.606 88.8284C146.671 88.5961 146.804 88.3884 146.987 88.2315C147.17 88.0747 147.396 87.9757 147.636 87.9471C147.795 87.9281 147.956 87.9406 148.111 87.984C148.265 88.0274 148.409 88.1008 148.535 88.2C148.661 88.2992 148.766 88.4222 148.845 88.5621C148.923 88.7019 148.973 88.8559 148.992 89.0151Z" fill="#231F20"/>
<path d="M134.801 88.911C135.666 88.1345 136.585 87.4207 137.551 86.775C140.551 84.7629 143.966 83.4524 147.542 82.9409" stroke="black" stroke-width="0.801" stroke-miterlimit="10" stroke-linecap="round"/>
<path d="M137.818 87.0312L140.427 92.195L143.038 97.3561L143.735 96.9289L144.432 96.5044" stroke="black" stroke-width="0.801" stroke-miterlimit="10" stroke-linecap="round"/>
<path d="M146.392 61.7143C140.915 62.3658 136.184 65.2013 132.823 69.3478C129.323 73.7468 127.438 79.2129 127.483 84.8338L147.884 79.638L168.286 74.4395C166.285 70.3165 163.132 66.8625 159.208 64.4965C155.361 62.1761 150.854 61.1976 146.392 61.7143Z" fill="#F9851C" stroke="black" stroke-width="0.801" stroke-miterlimit="10" stroke-linecap="round"/>
<path d="M159.902 85.7391L161.485 84.0703L163.071 82.3989" stroke="black" stroke-width="0.801" stroke-miterlimit="10" stroke-linecap="round"/>
<path d="M135.218 82.8633C135.882 85.0078 135.888 87.3025 135.234 89.4502C134.617 91.4961 133.347 93.2836 131.618 94.5392C130.97 95.0042 130.262 95.3813 129.514 95.6606C127.124 96.5429 124.484 96.4635 122.151 95.439C120.961 94.9147 119.903 94.132 119.054 93.1478C118.205 92.1636 117.585 91.0027 117.24 89.7493C117.03 88.9798 116.932 88.1839 116.949 87.3863C117.011 85.6453 117.552 83.9552 118.514 82.5029C119.494 81.0344 120.917 79.8889 122.682 79.5258C123.75 79.3205 124.852 79.3894 125.886 79.7261C126.565 79.9418 127.214 80.2433 127.816 80.6232C127.747 81.0317 127.683 81.4642 127.629 81.9155C127.576 82.3667 127.536 82.8393 127.507 83.3306C127.493 83.5976 127.483 83.8646 127.477 84.1102C127.472 84.3559 127.477 84.6122 127.477 84.8525L131.351 83.8646L135.218 82.8633Z" fill="black" stroke="black" stroke-width="0.801" stroke-miterlimit="10" stroke-linecap="round"/>
<path d="M128.596 77.3045L146.597 73.1339L164.601 68.9634" stroke="black" stroke-width="0.801" stroke-miterlimit="10" stroke-linecap="round"/>
<path d="M134.04 76.0442L134.451 79.4992L134.86 82.9542" stroke="black" stroke-width="0.801" stroke-miterlimit="10" stroke-linecap="round"/>
<path d="M141.161 74.4448L141.548 77.7129L141.935 80.9783" stroke="black" stroke-width="0.801" stroke-miterlimit="10" stroke-linecap="round"/>
<path d="M149.857 72.5198L150.236 75.7291L150.618 78.9385" stroke="black" stroke-width="0.801" stroke-miterlimit="10" stroke-linecap="round"/>
<path d="M158.706 70.4612L159.063 73.497L159.424 76.5328" stroke="black" stroke-width="0.801" stroke-miterlimit="10" stroke-linecap="round"/>
<path d="M152.575 95.247C152.503 95.1495 152.412 95.0685 152.306 95.0091C152.201 94.9497 152.084 94.9134 151.964 94.9025C151.844 94.8903 151.723 94.904 151.61 94.9427C151.496 94.9814 151.392 95.0442 151.304 95.1268L149.854 96.4832C149.374 96.9371 148.891 97.3892 148.407 97.8395C148.145 98.8863 148.077 99.9723 148.207 101.044C148.296 101.867 148.475 102.678 148.741 103.463C149.443 103.468 150.139 103.333 150.789 103.067C151.429 102.806 152.002 102.403 152.463 101.887C153.226 101.001 153.649 99.8717 153.657 98.702C153.681 97.4634 153.301 96.2505 152.575 95.247Z" fill="#EF3F3F" stroke="black" stroke-width="0.801" stroke-miterlimit="10" stroke-linecap="round"/>
<path d="M145.171 100.875C145.083 100.959 145.014 101.06 144.968 101.172C144.922 101.285 144.9 101.405 144.904 101.527C144.906 101.648 144.934 101.768 144.986 101.879C145.038 101.989 145.113 102.086 145.206 102.165C146.201 103.002 147.459 103.464 148.76 103.468C148.494 102.683 148.315 101.872 148.226 101.049C148.096 99.9775 148.164 98.8915 148.426 97.8447L146.808 99.364L145.171 100.875Z" fill="black" stroke="black" stroke-width="0.801" stroke-miterlimit="10" stroke-linecap="round"/>
<path d="M142.421 156.342C142.418 156.679 142.298 157.004 142.081 157.262C141.865 157.521 141.566 157.696 141.234 157.758C140.903 157.82 140.561 157.765 140.265 157.603C139.97 157.441 139.74 157.181 139.615 156.868C139.49 156.555 139.477 156.209 139.579 155.888C139.681 155.566 139.891 155.29 140.174 155.107C140.457 154.924 140.794 154.844 141.129 154.882C141.464 154.919 141.775 155.072 142.01 155.314C142.278 155.589 142.426 155.958 142.421 156.342Z" fill="black" stroke="black" stroke-width="0.801" stroke-miterlimit="10" stroke-linecap="round"/>
<path d="M140.013 184.249C140.013 184.488 139.954 184.724 139.842 184.935C139.729 185.146 139.566 185.327 139.367 185.46C139.168 185.593 138.939 185.675 138.701 185.699C138.463 185.722 138.222 185.687 138.001 185.595C137.78 185.503 137.585 185.359 137.433 185.174C137.281 184.988 137.177 184.769 137.13 184.534C137.084 184.299 137.096 184.056 137.165 183.827C137.235 183.598 137.36 183.39 137.53 183.221C137.733 183.018 137.992 182.879 138.274 182.823C138.556 182.767 138.849 182.796 139.114 182.906C139.38 183.016 139.607 183.202 139.767 183.441C139.927 183.68 140.012 183.961 140.013 184.249Z" fill="black" stroke="black" stroke-width="0.801" stroke-miterlimit="10" stroke-linecap="round"/>
<path d="M205.324 212.708C195.853 211.83 186.997 194.819 180.493 177.998C173.989 161.177 169.893 144.607 169.893 144.607L187.608 136.138L205.324 127.671L213.067 146.196L220.81 164.718" stroke="black" stroke-width="0.801" stroke-miterlimit="10" stroke-linecap="round"/>
<path d="M180.869 116.975L172.181 115.993L163.482 115.01C163.147 114.972 162.822 114.869 162.527 114.706C162.232 114.542 161.972 114.323 161.762 114.059C161.551 113.795 161.395 113.492 161.302 113.168C161.209 112.844 161.18 112.505 161.218 112.169L163.287 93.8452L165.356 75.521C165.434 74.8441 165.776 74.2254 166.308 73.8005C166.841 73.3756 167.52 73.1791 168.197 73.2542L176.888 74.2261L185.584 75.2086C185.92 75.2465 186.244 75.35 186.539 75.5132C186.834 75.6765 187.095 75.8963 187.305 76.1601C187.515 76.4239 187.671 76.7265 187.765 77.0507C187.858 77.3749 187.886 77.7143 187.848 78.0495L185.779 96.3871L183.71 114.714C183.672 115.049 183.569 115.374 183.405 115.669C183.242 115.964 183.022 116.224 182.759 116.434C182.495 116.645 182.192 116.801 181.868 116.894C181.544 116.988 181.204 117.016 180.869 116.978V116.975Z" fill="#D1B7E5" stroke="black" stroke-width="0.801" stroke-miterlimit="10" stroke-linecap="round"/>
<path d="M183.817 82.1132C183.819 82.5262 183.677 82.927 183.417 83.2476C183.157 83.5681 182.793 83.7885 182.389 83.8714C181.984 83.9542 181.564 83.8943 181.198 83.7018C180.833 83.5094 180.545 83.1963 180.385 82.8158C180.224 82.4354 180.201 82.011 180.318 81.615C180.435 81.219 180.685 80.8758 181.027 80.6438C181.369 80.4118 181.78 80.3053 182.191 80.3425C182.603 80.3796 182.988 80.5581 183.283 80.8476C183.451 81.0129 183.585 81.2098 183.676 81.427C183.768 81.6442 183.816 81.8775 183.817 82.1132Z" fill="black" stroke="black" stroke-width="0.801" stroke-miterlimit="10" stroke-linecap="round"/>
<path d="M183.163 88.5665C183.165 88.9809 183.024 89.3833 182.763 89.7052C182.502 90.0271 182.137 90.2486 181.732 90.3319C181.326 90.4153 180.903 90.3554 180.537 90.1624C180.17 89.9694 179.882 89.6552 179.721 89.2735C179.559 88.8917 179.536 88.4659 179.653 88.0685C179.771 87.6712 180.023 87.3269 180.365 87.0943C180.708 86.8617 181.121 86.7551 181.534 86.7928C181.947 86.8305 182.334 87.0101 182.629 87.3009C182.797 87.4664 182.93 87.6633 183.022 87.8805C183.113 88.0977 183.161 88.3308 183.163 88.5665Z" fill="black" stroke="black" stroke-width="0.801" stroke-miterlimit="10" stroke-linecap="round"/>
<path d="M188.041 81.881C188.209 81.6865 188.408 81.5198 188.628 81.387C188.844 81.2581 189.084 81.1737 189.333 81.1387C189.462 81.1253 189.592 81.1253 189.72 81.1387C190.032 81.1704 190.334 81.261 190.612 81.4057C191.947 82.0999 192.644 84.4575 192.999 86.6443C193.218 88.0325 193.342 89.4338 193.373 90.8388C193.403 94.0803 193.67 97.3152 194.174 100.518C194.649 103.636 195.309 106.8 196.072 110.466C196.072 110.466 196.187 111 196.993 113.619C197.8 116.239 199.308 120.919 202.085 129.228C200.739 129.869 199.391 130.512 198.04 131.158L193.987 133.1C190.717 134.673 187.459 136.248 184.212 137.823C180.965 139.398 177.734 140.977 174.517 142.559C170.331 137.486 166.774 132.947 164.003 129.284C161.231 125.621 159.226 122.793 158.145 121.125C157.663 120.346 157.241 119.532 156.882 118.69C156.273 117.261 155.704 115.419 155.875 113.75C155.914 113.372 155.977 112.998 156.065 112.629C156.142 112.303 156.228 112.033 156.297 111.828C155.842 111.37 155.453 110.852 155.141 110.287C154.553 109.259 154.287 108.079 154.375 106.899C154.43 106.234 154.598 105.584 154.874 104.976C155.061 104.565 155.292 104.175 155.563 103.812C155.344 103.472 155.175 103.102 155.058 102.715C154.813 101.937 154.809 101.103 155.047 100.323C155.285 99.5435 155.755 98.8543 156.393 98.3469C156.736 98.0598 157.12 97.8266 157.533 97.6553C157.274 96.979 157.213 96.2423 157.36 95.5327C157.493 94.8628 157.836 94.2529 158.34 93.7918C158.945 93.2645 159.724 92.9793 160.526 92.9908C161.384 92.9941 162.216 93.2887 162.884 93.8266C162.988 93.9092 163.087 93.9984 163.18 94.0936C163.277 94.1897 163.365 94.2911 163.447 94.3953C164.242 95.3388 165.105 96.2223 166.029 97.0386C167.18 98.0537 168.425 98.9575 169.746 99.7379C172.528 101.367 175.604 102.433 178.797 102.875C180.863 103.168 182.956 103.219 185.034 103.027C185.568 98.7741 185.819 96.5473 185.958 95.3832C186.097 94.219 186.1 94.1203 186.1 94.1203C186.193 92.6838 186.316 91.3434 186.498 89.7334C186.679 88.1234 186.911 86.2624 187.226 83.7553C187.267 83.4088 187.357 83.0699 187.493 82.7487C187.629 82.4326 187.814 82.1398 188.041 81.881Z" fill="#FFC0C0" stroke="black" stroke-width="0.801" stroke-miterlimit="10" stroke-linecap="round"/>
<path d="M157.525 97.6445C158.734 99.3583 160.062 100.984 161.501 102.509C163.923 105.086 167.217 107.956 170.699 109.118" stroke="black" stroke-width="0.801" stroke-miterlimit="10" stroke-linecap="round"/>
<path d="M155.566 103.802C156.791 105.434 158.107 106.996 159.509 108.479C161.835 110.941 164.865 113.651 167.687 114.639" stroke="black" stroke-width="0.801" stroke-miterlimit="10" stroke-linecap="round"/>
<path d="M156.3 111.817C156.3 111.817 157.653 113.368 159.504 115.157C161.354 116.946 163.666 118.967 165.605 119.91" stroke="black" stroke-width="0.801" stroke-miterlimit="10" stroke-linecap="round"/>
<path d="M107.359 53.7686H69.6103C68.4395 53.77 67.317 54.2357 66.4891 55.0636C65.6612 55.8915 65.1955 57.0139 65.1941 58.1847V79.211C65.1941 80.3822 65.6594 81.5055 66.4876 82.3337C67.3158 83.1619 68.439 83.6272 69.6103 83.6272H86.7944L91.9208 88.7509L97.0445 93.8719L96.1394 88.7509L95.2343 83.6272H107.359C108.53 83.6272 109.653 83.1619 110.481 82.3337C111.31 81.5055 111.775 80.3822 111.775 79.211V58.1847C111.773 57.0139 111.308 55.8915 110.48 55.0636C109.652 54.2357 108.53 53.77 107.359 53.7686Z" fill="#14AF6C" stroke="black" stroke-width="0.801" stroke-miterlimit="10" stroke-linecap="round"/>
<path d="M80.4158 69.5936C80.4164 70.2379 80.1936 70.8625 79.7854 71.361C79.3771 71.8594 78.8086 72.2009 78.1768 72.3271C77.545 72.4534 76.8889 72.3567 76.3204 72.0535C75.7519 71.7502 75.3061 71.2593 75.0591 70.6642C74.812 70.0691 74.7789 69.4068 74.9655 68.7901C75.152 68.1734 75.5466 67.6404 76.0821 67.282C76.6175 66.9237 77.2607 66.7621 77.9019 66.8247C78.5432 66.8874 79.1429 67.1705 79.5988 67.6258C79.8578 67.8839 80.0633 68.1905 80.2035 68.5282C80.3438 68.8659 80.4159 69.228 80.4158 69.5936Z" fill="#F7CE21" stroke="black" stroke-width="0.801" stroke-miterlimit="10" stroke-linecap="round"/>
<path d="M102.117 69.5936C102.114 70.2368 101.887 70.8588 101.476 71.3536C101.066 71.8484 100.496 72.1855 99.8643 72.3073C99.2328 72.429 98.5786 72.328 98.0132 72.0214C97.4478 71.7149 97.0062 71.2217 96.7637 70.626C96.5212 70.0303 96.4928 69.3689 96.6834 68.7546C96.8739 68.1403 97.2716 67.6111 97.8087 67.2572C98.3457 66.9033 98.9889 66.7466 99.6285 66.8138C100.268 66.881 100.865 67.168 101.316 67.6258C101.573 67.8851 101.775 68.1923 101.913 68.53C102.05 68.8676 102.12 69.2291 102.117 69.5936Z" fill="#F7CE21" stroke="black" stroke-width="0.801" stroke-miterlimit="10" stroke-linecap="round"/>
<path d="M91.28 69.5936C91.2795 70.2366 91.0561 70.8595 90.6479 71.3562C90.2397 71.8529 89.672 72.1928 89.0413 72.3178C88.4106 72.4429 87.7561 72.3455 87.1892 72.0422C86.6224 71.7389 86.1782 71.2484 85.9323 70.6543C85.6865 70.0602 85.6542 69.3993 85.8409 68.7841C86.0277 68.1689 86.4219 67.6374 86.9566 67.2803C87.4912 66.9231 88.1331 66.7624 88.7729 66.8254C89.4128 66.8884 90.011 67.1713 90.4657 67.6258C90.9871 68.148 91.28 68.8557 91.28 69.5936Z" fill="#F7CE21" stroke="black" stroke-width="0.801" stroke-miterlimit="10" stroke-linecap="round"/>
<path d="M49.7615 117.069C48.7803 116.102 47.9 115.039 47.1342 113.894C46.456 112.898 45.9407 111.998 45.4841 111.307C44.0568 109.152 42.7432 106.924 41.5485 104.632C40.352 102.342 39.318 99.9702 38.454 97.535C38.243 96.8903 37.9619 96.2707 37.6156 95.6873C37.1608 94.8725 36.4438 94.2355 35.5811 93.8797C35.3664 93.7998 35.1434 93.7443 34.9163 93.7142C34.5456 93.6636 34.1682 93.6993 33.8136 93.8183C33.2625 94.0166 32.793 94.3923 32.4786 94.8863C32.1181 95.4487 31.8992 96.09 31.8404 96.7553C31.478 96.8228 31.1273 96.9424 30.7991 97.1104C30.5731 97.2256 30.3616 97.3672 30.169 97.5323C29.5049 98.1307 29.0697 98.9416 28.9381 99.8258C28.7741 100.849 28.8658 101.896 29.2051 102.875C29.0545 102.953 28.9099 103.042 28.7726 103.142C28.6466 103.236 28.5278 103.34 28.4175 103.452C27.1065 104.765 27.1839 107.029 27.6165 109.035C27.9339 110.42 28.391 111.77 28.9809 113.064L29.4187 114.014C29.5629 114.329 29.7098 114.647 29.8539 114.965C29.7256 115.034 29.6024 115.113 29.4855 115.2C29.3348 115.313 29.1954 115.441 29.069 115.582C28.5964 116.116 28.0971 117.066 28.3481 119.09C28.599 121.114 29.603 124.206 32.1288 129.009C33.9523 132.447 35.9862 135.77 38.2191 138.957C41.7304 143.968 45.5656 148.743 49.7001 153.253L63.2663 141.165L76.862 129.086C72.3603 119.907 68.4942 112.017 65.68 106.271C62.8658 100.525 61.109 96.9209 60.8179 96.3014C60.7787 96.2173 60.7351 96.1353 60.6871 96.0558C60.319 95.4278 59.785 94.9133 59.1438 94.5686C58.7127 94.3445 58.2254 94.2517 57.7421 94.3016C57.5856 94.3193 57.4316 94.3542 57.2829 94.4057C56.9942 94.4974 56.7265 94.6453 56.4952 94.8409C55.6942 95.5218 55.5153 96.4723 55.5927 97.4549C55.7138 98.42 55.9459 99.3678 56.2843 100.28C57.3307 103.419 58.142 106.632 58.7113 109.892C59.3708 114.009 59.3761 118.115 57.2214 119.45C56.8506 119.669 56.4355 119.802 56.0066 119.84C55.5864 119.876 55.1639 119.876 54.7437 119.84C53.9857 119.788 53.2474 119.575 52.5783 119.215C51.5385 118.643 50.5892 117.919 49.7615 117.069Z" fill="#FFC0C0" stroke="black" stroke-width="0.801" stroke-miterlimit="10" stroke-linecap="round"/>
<path d="M29.87 114.976C29.87 114.976 30.8552 117.664 32.273 120.737C33.6908 123.811 35.4984 127.266 37.1724 128.801" stroke="black" stroke-width="0.801" stroke-miterlimit="10" stroke-linecap="round"/>
<path d="M29.2131 102.883C29.2131 102.883 31.3358 108.167 33.8509 113.608C36.3661 119.05 39.2684 124.638 40.817 125.25" stroke="black" stroke-width="0.801" stroke-miterlimit="10" stroke-linecap="round"/>
<path d="M31.8431 96.7634C31.8431 96.7634 33.867 102.352 36.4836 108.244C39.1002 114.137 42.3122 120.34 44.6858 121.565" stroke="black" stroke-width="0.801" stroke-miterlimit="10" stroke-linecap="round"/>
<path d="M176.373 166.48V189.594V212.708H203.786C203.017 212.708 202.227 212.292 201.487 211.766C200.747 211.24 200.058 210.599 199.495 210.164C196.262 207.592 193.6 204.33 191.306 200.797C189.013 197.265 187.088 193.457 185.333 189.802C184.228 187.501 183.336 185.45 182.506 183.394C181.676 181.338 180.904 179.282 180.044 176.97C179.537 175.611 178.976 174.033 178.346 172.29C177.716 170.546 177.064 168.586 176.373 166.48Z" fill="black" stroke="black" stroke-width="0.801" stroke-miterlimit="10" stroke-linecap="round"/>
</svg>
