<svg width="240" height="240" viewBox="0 0 240 240" fill="none" xmlns="http://www.w3.org/2000/svg">
<g filter="url(#filter0_i_414_821)">
<path d="M133.109 144.115C133.071 146.872 133.26 149.627 133.674 152.353C134.158 155.54 134.973 158.668 136.103 161.687C136.316 162.257 136.538 162.812 136.766 163.362C136.993 163.913 137.228 164.435 137.467 164.949C139.318 171.094 141.169 177.236 143.019 183.378L148.57 201.806L163.616 198.503L178.663 195.198L173.35 168.025C171.58 158.968 169.809 149.912 168.037 140.856L150.566 142.486L133.109 144.115Z" fill="#FFC0C0" stroke="black" stroke-width="0.717992" stroke-miterlimit="10" stroke-linecap="round"/>
<path d="M151.494 16.0878C149.347 15.9432 147.19 16.0282 145.061 16.3415C142.927 16.6554 140.831 17.1871 138.805 17.9283L121.688 24.1868L104.576 30.4429L104.133 30.6128L103.693 30.7947C103.678 30.8617 103.027 33.6834 103.233 40.6814C103.439 47.6795 104.497 58.8466 107.9 75.6022L108.762 78.9528C109.049 80.0697 109.335 81.1866 109.621 82.3034L134.291 76.009L158.961 69.7314L153.146 53.4114L147.33 37.0963C146.84 35.7361 146.44 34.3449 146.133 32.9319C145.832 31.5169 145.634 30.0819 145.54 28.6383C145.15 22.7603 146.578 19.6299 148.134 17.9642C149.69 16.2984 151.377 16.0998 151.494 16.0878Z" fill="#104FC1" stroke="black" stroke-width="0.717992" stroke-miterlimit="10" stroke-linecap="round"/>
<path d="M103.693 30.7947C103.296 30.944 102.908 31.1167 102.532 31.3117C102.218 31.4744 101.979 31.6204 101.814 31.7185C96.8143 34.8921 94.0022 42.924 92.1904 50.3696C90.3787 57.8151 89.5722 64.6792 88.5765 65.5168C88.3372 65.7226 88.0763 65.9141 87.8825 66.0529C87.6886 66.1917 87.5546 66.2922 87.5546 66.2922C87.2019 66.5279 86.8368 66.7444 86.4609 66.9408C86.1617 67.0964 85.9415 67.1945 85.8482 67.2376C84.8382 67.6947 82.8829 68.822 80.5446 70.2268C78.2063 71.6317 75.4852 73.3142 72.9363 74.8914C72.3404 75.2576 72.0029 75.4706 71.7396 75.6357C71.4764 75.8009 71.2801 75.9181 70.9738 76.0976C70.1912 76.5619 69.2578 77.0956 68.1856 77.6652C67.1134 78.2348 65.9072 78.8404 64.5741 79.4578C61.1899 80.9991 57.8537 83.122 55.3622 84.8571C52.8708 86.5923 51.229 87.9469 51.229 87.9469C51.0258 88.0603 50.841 88.2039 50.6809 88.3729C50.3542 88.698 50.1547 89.1293 50.1185 89.5887C50.1185 89.6174 50.1185 89.6437 50.1185 89.6701V89.749C50.1254 90.0162 50.2002 90.2773 50.3359 90.5075C50.4716 90.7378 50.6636 90.9298 50.8939 91.0654C51.1241 91.2061 51.3849 91.2892 51.6541 91.3075C51.9232 91.3259 52.1929 91.2789 52.44 91.1707L54.2685 90.3809L56.0946 89.5887C55.4604 90.4192 54.5988 91.5632 53.6845 92.822C52.7703 94.0809 51.8082 95.4547 50.9753 96.7423C50.9753 96.7423 50.87 96.8907 50.7049 97.1635C50.5397 97.4363 50.3076 97.8336 50.0563 98.3338C49.6514 99.1421 49.3167 99.9836 49.0559 100.849C48.8605 101.499 48.7062 102.161 48.594 102.831C48.5321 103.203 48.6059 103.585 48.8022 103.908C48.9959 104.229 49.2995 104.469 49.6566 104.583C49.9675 104.67 50.299 104.643 50.5924 104.509C50.9458 104.353 51.258 104.117 51.5042 103.819C51.6263 103.678 51.3798 104.128 51.1716 104.748C50.9633 105.368 50.7958 106.153 51.071 106.682C51.1502 106.831 51.2584 106.963 51.3893 107.069C51.4901 107.152 51.6001 107.223 51.7172 107.28C51.9041 107.328 52.0964 107.351 52.2892 107.349C52.5192 107.349 52.7454 107.292 52.9474 107.182C53.2903 106.957 53.5521 106.628 53.6941 106.244C53.8449 105.911 53.9334 105.636 54.0507 105.653C54.168 105.669 54.1608 105.849 54.2087 106.098C54.252 106.404 54.3825 106.691 54.5844 106.926C54.6901 107.037 54.811 107.133 54.9434 107.211C55.1844 107.359 55.4693 107.42 55.75 107.383C55.9269 107.357 56.0956 107.291 56.243 107.189C56.339 107.125 56.4266 107.05 56.5038 106.964L57.6239 105.442L58.7464 103.92C58.7576 104.092 58.7931 104.262 58.8517 104.425C58.9536 104.718 59.1476 104.969 59.4045 105.143C59.5893 105.265 59.8014 105.34 60.022 105.361C60.1659 105.378 60.3113 105.378 60.4552 105.361C60.9444 105.291 61.3926 105.05 61.7189 104.679C61.9134 104.47 62.0792 104.237 62.2119 103.984C62.5888 103.387 63.0021 102.813 63.4492 102.266C65.0842 100.289 67.1507 98.7128 69.4899 97.6589C70.5596 97.1847 71.6608 96.7849 72.7855 96.4623C74.9682 95.7945 77.1078 94.9904 79.2474 94.2126C81.3868 93.4111 83.566 92.7201 85.7764 92.1424C88.3755 91.4938 91.5634 90.345 95.3735 88.2484C99.1837 86.1519 103.611 83.1076 108.688 78.6752C107.883 75.1307 107.213 71.8519 106.653 68.889C106.093 65.9261 105.643 63.2815 105.284 61.0054C104.691 57.2551 104.183 54.017 103.822 50.7956C103.438 47.4425 103.242 44.0707 103.233 40.6958C103.233 38.6208 103.283 36.7301 103.372 35.0668C103.461 33.4034 103.58 31.9531 103.693 30.7947Z" fill="#FFC0C0" stroke="black" stroke-width="0.717992" stroke-miterlimit="10" stroke-linecap="round"/>
<path d="M158.961 69.7314L134.291 76.0091L109.621 82.2891L104.313 84.0649L99.0018 85.8408L106.467 105.519L113.931 125.199L120.728 123.215L127.528 121.231L128.136 128.65L128.746 136.069L150.819 133.836L172.893 131.603C172.457 122.908 171.481 109.128 169.36 96.6801C167.24 84.2325 163.968 73.1012 158.961 69.7314Z" fill="#104FC1" stroke="black" stroke-width="0.717992" stroke-miterlimit="10" stroke-linecap="round"/>
<path d="M90.2352 88.7725L97.8172 108.23L105.399 127.688L109.666 126.443L113.931 125.199L106.467 105.519L99.0019 85.8407L94.6198 87.3078L90.2352 88.7725Z" fill="#F7CE21" stroke="black" stroke-width="0.717992" stroke-miterlimit="10" stroke-linecap="round"/>
<path d="M128.746 136.055L129.091 140.248L129.438 144.45L151.332 142.407L173.226 140.365C173.226 140.365 173.209 139.508 173.159 137.972C173.108 136.435 173.027 134.25 172.893 131.572L150.819 133.805L128.746 136.055Z" fill="#F7CE21" stroke="black" stroke-width="0.717992" stroke-miterlimit="10" stroke-linecap="round"/>
<path d="M168.949 94.3441L156.917 98.0873L144.886 101.833L157.698 104.135L170.507 106.435L169.726 100.39L168.949 94.3441Z" fill="black" stroke="black" stroke-width="0.717992" stroke-miterlimit="10" stroke-linecap="round"/>
<path d="M131.446 13.5629L126.36 14.0415L121.272 14.5202C121.483 15.8808 121.872 17.2078 122.43 18.4668C123.204 20.2177 124.332 21.7889 125.745 23.081C126.516 23.7825 127.365 24.3936 128.274 24.9024C129.005 25.3124 129.771 25.6576 130.562 25.9339C131.053 24.9127 131.438 23.8436 131.709 22.7436C131.988 21.5992 132.148 20.429 132.187 19.2518C132.225 18.2738 132.178 17.2945 132.046 16.3247C131.924 15.3888 131.724 14.4648 131.446 13.5629Z" fill="black" stroke="black" stroke-width="0.717992" stroke-miterlimit="10" stroke-linecap="round"/>
<path d="M126.602 23.8038C126.305 23.5645 126.075 23.373 125.9 23.2079C125.726 23.0428 125.599 22.9135 125.513 22.8178C125.426 22.722 125.393 22.6838 125.343 22.6239L125.213 22.4708L125.345 22.4995L125.501 22.5282L125.635 22.5473C125.716 22.5473 125.826 22.5665 125.934 22.5713C126.533 22.6003 127.129 22.484 127.673 22.2321C128.217 21.9803 128.692 21.6004 129.057 21.1251C129.423 20.6497 129.667 20.093 129.77 19.5025C129.874 18.912 129.832 18.3053 129.65 17.7343C129.467 17.1633 129.15 16.6449 128.723 16.2236C128.297 15.8022 127.775 15.4903 127.202 15.3146C126.629 15.1389 126.021 15.1046 125.432 15.2147C124.843 15.3248 124.289 15.5759 123.818 15.9466C123.117 16.498 122.628 17.2738 122.432 18.1437C122.298 17.9043 122.16 17.6123 122.023 17.2988C121.879 16.9643 121.753 16.6224 121.645 16.2745C121.544 15.9514 121.468 15.6426 121.406 15.3507C121.343 15.0587 121.303 14.7858 121.272 14.5345L112.589 15.3555L103.896 16.1668C103.844 16.4995 103.8 16.8321 103.767 17.1696C103.733 17.507 103.71 17.8493 103.695 18.1915C103.51 22.2681 104.851 26.2672 107.455 29.4089C109.927 32.3384 113.424 34.2219 117.359 34.3679C120.121 34.466 122.845 33.7005 125.151 32.178C127.487 30.6299 129.355 28.4723 130.553 25.9387C130.057 25.7635 129.57 25.5622 129.095 25.3355C128.669 25.1345 128.306 24.9359 128.006 24.7588C127.839 24.6606 127.628 24.5338 127.389 24.3734C127.15 24.2131 126.886 24.0264 126.602 23.8038Z" fill="#FFC0C0" stroke="black" stroke-width="0.717992" stroke-miterlimit="10" stroke-linecap="round"/>
<path d="M122.119 23.5837C122.1 24.0437 121.922 24.4828 121.615 24.8264C121.309 25.17 120.893 25.3968 120.438 25.4682C119.983 25.5396 119.518 25.4512 119.121 25.218C118.724 24.9848 118.42 24.6213 118.261 24.1893C118.102 23.7573 118.097 23.2835 118.248 22.8485C118.399 22.4135 118.696 22.0443 119.088 21.8036C119.481 21.5629 119.945 21.4657 120.401 21.5284C120.857 21.5911 121.277 21.81 121.59 22.1477C121.769 22.3399 121.908 22.5658 121.999 22.8124C122.09 23.059 122.131 23.3212 122.119 23.5837Z" fill="#EF3F3F" stroke="black" stroke-width="0.717992" stroke-miterlimit="10" stroke-linecap="round"/>
<path d="M112.484 28.3487C112.464 28.8074 112.286 29.2452 111.98 29.5876C111.675 29.93 111.26 30.1559 110.806 30.2269C110.352 30.2979 109.888 30.2095 109.492 29.9769C109.097 29.7443 108.794 29.3817 108.635 28.9509C108.476 28.5201 108.472 28.0476 108.622 27.6138C108.772 27.18 109.068 26.8117 109.46 26.5715C109.851 26.3313 110.313 26.234 110.768 26.2962C111.223 26.3584 111.642 26.5763 111.955 26.9127C112.134 27.1049 112.273 27.3309 112.364 27.5775C112.454 27.824 112.495 28.0862 112.484 28.3487Z" fill="#EF3F3F" stroke="black" stroke-width="0.717992" stroke-miterlimit="10" stroke-linecap="round"/>
<path d="M113.469 28.7939C113.996 28.9584 114.556 28.9872 115.097 28.8777C115.975 28.6886 116.98 28.0424 117.49 26.2067" stroke="black" stroke-width="0.717992" stroke-miterlimit="10" stroke-linecap="round"/>
<path d="M109.621 24.0815C109.614 24.2669 109.543 24.4442 109.42 24.5831C109.297 24.7221 109.13 24.8141 108.947 24.8435C108.764 24.8729 108.576 24.8379 108.416 24.7443C108.255 24.6508 108.132 24.5046 108.068 24.3307C108.003 24.1567 108.001 23.9657 108.062 23.7903C108.122 23.615 108.242 23.466 108.4 23.3688C108.558 23.2717 108.745 23.2324 108.929 23.2576C109.112 23.2828 109.282 23.3709 109.408 23.5071C109.48 23.5839 109.535 23.6743 109.572 23.7729C109.609 23.8715 109.625 23.9764 109.621 24.0815Z" fill="#231F20"/>
<path d="M117.449 21.0611C117.444 21.2196 117.391 21.3727 117.298 21.5012C117.205 21.6298 117.077 21.7279 116.928 21.7832C116.779 21.8385 116.618 21.8486 116.464 21.8121C116.309 21.7756 116.169 21.6941 116.061 21.5781C115.917 21.4218 115.84 21.2146 115.848 21.002C115.857 20.7894 115.949 20.5886 116.104 20.4437C116.221 20.3363 116.366 20.2658 116.522 20.241C116.679 20.2162 116.839 20.2382 116.983 20.3042C117.126 20.3702 117.248 20.4773 117.331 20.612C117.414 20.7467 117.455 20.903 117.449 21.0611Z" fill="#231F20"/>
<path d="M108.312 19.5988L112.565 18.0359L116.82 16.4731" stroke="black" stroke-width="0.717992" stroke-miterlimit="10" stroke-linecap="round"/>
<path d="M110.485 18.8019L111.655 22.4158L112.823 26.032L113.321 25.8262L113.816 25.6228" stroke="black" stroke-width="0.717992" stroke-miterlimit="10" stroke-linecap="round"/>
<path d="M118.538 3.08015C114.998 2.96895 111.556 4.25304 108.953 6.65575C106.228 9.15333 104.443 12.5108 103.896 16.1668L117.667 14.8648L131.436 13.5628C130.558 10.684 128.864 8.12179 126.558 6.18666C124.302 4.29385 121.482 3.20151 118.538 3.08015Z" fill="#F9851C" stroke="black" stroke-width="0.717992" stroke-miterlimit="10" stroke-linecap="round"/>
<path d="M124.864 20.0487L126.063 19.1273L127.262 18.2035" stroke="black" stroke-width="0.717992" stroke-miterlimit="10" stroke-linecap="round"/>
<path d="M109.133 15.6738C109.348 17.1331 109.119 18.6235 108.475 19.9506C107.864 21.2174 106.856 22.2491 105.603 22.8872C105.138 23.1221 104.645 23.2943 104.136 23.3994C102.491 23.7301 100.782 23.4064 99.3728 22.4971C98.6544 22.0358 98.0476 21.4204 97.5964 20.6956C97.1452 19.9708 96.8609 19.1547 96.7641 18.3064C96.7055 17.785 96.7224 17.2578 96.8144 16.7412C97.0304 15.6142 97.5539 14.5689 98.327 13.7208C98.704 13.2839 99.1636 12.9257 99.6795 12.6669C100.195 12.4082 100.757 12.2539 101.333 12.2131C102.049 12.1934 102.758 12.3556 103.394 12.6845C103.813 12.8933 104.204 13.1547 104.557 13.4624C104.468 13.7208 104.382 13.9937 104.303 14.2809C104.224 14.5681 104.147 14.872 104.08 15.1879C104.042 15.3587 104.009 15.5262 103.98 15.6905C103.951 15.8533 103.925 16.016 103.901 16.1692L106.517 15.9299L109.133 15.6738Z" fill="black" stroke="black" stroke-width="0.717992" stroke-miterlimit="10" stroke-linecap="round"/>
<path d="M105.399 11.3898L117.509 10.5138L129.62 9.63786" stroke="black" stroke-width="0.717992" stroke-miterlimit="10" stroke-linecap="round"/>
<path d="M109.063 11.1265L108.977 13.4097L108.893 15.6953" stroke="black" stroke-width="0.717992" stroke-miterlimit="10" stroke-linecap="round"/>
<path d="M113.848 10.813L113.766 12.9717L113.685 15.1329" stroke="black" stroke-width="0.717992" stroke-miterlimit="10" stroke-linecap="round"/>
<path d="M119.687 10.4468L119.608 12.5696L119.529 14.6901" stroke="black" stroke-width="0.717992" stroke-miterlimit="10" stroke-linecap="round"/>
<path d="M125.642 10.0088L125.565 12.0168L125.491 14.0248" stroke="black" stroke-width="0.717992" stroke-miterlimit="10" stroke-linecap="round"/>
<path d="M59.0217 91.9748C59.0217 91.9748 57.9998 92.7957 56.5494 94.6864C55.0991 96.5771 53.2155 99.5376 51.4948 103.817" stroke="black" stroke-width="0.717992" stroke-miterlimit="10" stroke-linecap="round"/>
<path d="M61.8051 93.619C60.7899 94.7377 59.836 95.9105 58.9475 97.1324C57.3464 99.3079 55.4054 102.314 54.0413 105.65" stroke="black" stroke-width="0.717992" stroke-miterlimit="10" stroke-linecap="round"/>
<path d="M64.3611 95.4666C64.3611 95.4666 63.2338 96.8524 61.9678 98.5995C60.7017 100.347 59.2945 102.46 58.7368 103.917" stroke="black" stroke-width="0.717992" stroke-miterlimit="10" stroke-linecap="round"/>
<path d="M187.755 63.3676L181.731 48.8714L175.707 34.3775C173.161 28.2267 169.712 24.0719 165.971 21.3005C162.608 18.8201 158.709 17.1641 154.589 16.466C154.075 16.375 153.56 16.2953 153.045 16.2266C152.53 16.158 152.013 16.1086 151.494 16.0783C151.377 16.0783 149.694 16.2913 148.144 17.9546C146.593 19.618 145.159 22.7412 145.549 28.6288C145.646 30.0702 145.847 31.5027 146.15 32.9152C146.456 34.3282 146.856 35.7193 147.347 37.0795L153.162 53.4019L158.978 69.7219L148.584 75.6022L138.192 81.4802C136.802 80.9536 134.925 81.315 133.406 81.8081C132.474 82.1091 131.567 82.4837 130.694 82.9281L124.383 85.8001L118.074 88.6721C117.66 88.8711 117.274 89.1246 116.928 89.4259C116.351 89.886 115.967 90.5449 115.851 91.2736C115.84 91.3785 115.835 91.484 115.836 91.5895C115.839 91.7106 115.85 91.8314 115.87 91.9509C115.929 92.1548 116.016 92.3496 116.128 92.5301C116.269 92.7588 116.464 92.9495 116.696 93.0853C117.079 93.2863 117.521 93.344 117.942 93.2481C118.285 93.176 118.618 93.066 118.936 92.9202C119.084 92.8556 119.229 92.782 119.369 92.7C119.493 92.6258 119.594 92.5564 119.675 92.499L121.614 91.5895L123.521 90.7064C123.593 90.6657 123.682 90.6178 123.782 90.5676C123.883 90.5173 124 90.4599 124.129 90.4024C124.542 90.201 124.97 90.0337 125.41 89.9022C125.754 89.7842 126.132 89.8066 126.46 89.9644C126.547 90.0166 126.627 90.0785 126.7 90.1487C126.835 90.2784 126.929 90.4448 126.97 90.6274C126.985 90.8008 126.964 90.9756 126.908 91.1405C126.852 91.3053 126.762 91.4566 126.644 91.5847C126.427 91.8499 126.182 92.0907 125.912 92.3027C124.617 93.3653 122.296 94.8205 119.874 96.1823C117.72 97.4174 115.496 98.5258 113.213 99.5018C113.103 99.5448 112.995 99.5903 112.888 99.6382C112.78 99.6861 112.672 99.7363 112.567 99.7914C111.148 100.543 110.906 101.404 111.021 102.079C111.108 102.512 111.31 102.913 111.605 103.24C111.23 103.274 110.879 103.439 110.614 103.707C110.349 103.974 110.187 104.327 110.157 104.702C110.152 104.782 110.152 104.862 110.157 104.942C110.16 105.022 110.169 105.102 110.183 105.181C110.344 106.009 110.987 106.44 111.591 106.663C111.966 106.798 112.36 106.879 112.759 106.902C112.73 107.218 112.772 107.536 112.881 107.833C112.99 108.131 113.164 108.401 113.39 108.623C113.779 108.965 114.25 109.201 114.757 109.307C114.993 109.362 115.233 109.396 115.475 109.41C115.714 109.424 115.954 109.42 116.193 109.398L118.294 109.214L120.396 109.03C120.635 109.815 121.458 110.104 122.353 110.164C123.164 110.197 123.975 110.124 124.766 109.946C125.016 109.894 125.268 109.843 125.52 109.795L126.274 109.654C132.788 108.458 137.443 107.072 140.684 105.825C143.924 104.578 145.757 103.472 146.624 102.872C146.775 102.764 146.921 102.649 147.059 102.529C147.198 102.41 147.335 102.29 147.471 102.156C148.004 101.698 148.608 101.328 149.259 101.062C149.828 100.812 150.411 100.592 151.004 100.404L151.638 100.198C151.851 100.131 152.061 100.059 152.272 99.9876L168.412 94.5357L184.551 89.0526C184.944 88.9185 185.329 88.7586 185.702 88.5739C186.076 88.393 186.434 88.18 186.772 87.9373C191.015 84.905 191.261 78.7614 190.445 73.3764C189.899 69.9556 188.998 66.6011 187.755 63.3676Z" fill="#FFC0C0" stroke="black" stroke-width="0.717992" stroke-miterlimit="10" stroke-linecap="round"/>
<path d="M111.603 103.242C111.603 103.242 114.793 102.524 118.617 101.395C122.442 100.265 126.898 98.7287 129.438 97.0869" stroke="black" stroke-width="0.717992" stroke-miterlimit="10" stroke-linecap="round"/>
<path d="M112.751 106.911C112.751 106.911 116.03 106.327 120.003 105.358C123.976 104.389 128.638 103.029 131.419 101.476" stroke="black" stroke-width="0.717992" stroke-miterlimit="10" stroke-linecap="round"/>
<path d="M120.396 109.039C121.647 108.857 122.887 108.598 124.108 108.264C127.21 107.442 130.224 106.32 133.109 104.913" stroke="black" stroke-width="0.717992" stroke-miterlimit="10" stroke-linecap="round"/>
<path d="M158.961 69.7314L162.767 67.5774L166.572 65.4115L161.067 62.8291L155.563 60.2467L157.267 64.9831C157.833 66.5675 158.398 68.1502 158.961 69.7314Z" fill="black" stroke="black" stroke-width="0.717992" stroke-miterlimit="10" stroke-linecap="round"/>
<path d="M112.392 56.7357C111.97 55.4046 111.699 54.0302 111.583 52.6384C111.485 51.5074 111.58 50.3679 111.863 49.2686C112.125 48.291 112.663 47.4099 113.414 46.7317C115.199 45.269 117.491 44.5744 119.788 44.8003C120.791 44.9494 121.729 45.3858 122.49 46.0568C123.335 46.8152 124.048 47.71 124.598 48.7038C125.923 51.1643 126.743 53.8651 127.008 56.6472C127.108 57.7843 127.015 58.93 126.733 60.0361C126.478 61.0184 125.944 61.906 125.197 62.5922C124.315 63.3196 123.298 63.8653 122.205 64.198C121.111 64.5307 119.963 64.6438 118.826 64.5307C117.822 64.3822 116.884 63.9457 116.124 63.2743C115.274 62.5126 114.56 61.6128 114.01 60.6129C113.329 59.3846 112.786 58.0842 112.392 56.7357ZM123.162 53.4617C122.884 52.5161 122.531 51.5941 122.107 50.7046C121.785 50.0182 121.371 49.3788 120.877 48.8043C120.472 48.3338 119.925 48.0079 119.319 47.8757C118.636 47.7518 117.934 47.8037 117.277 48.0265C116.601 48.207 115.981 48.5552 115.475 49.0389C115.042 49.4827 114.765 50.0558 114.688 50.6711C114.594 51.4221 114.606 52.1825 114.721 52.9304C114.864 53.9111 115.086 54.8787 115.384 55.8239C115.666 56.7837 116.023 57.7199 116.451 58.6241C116.776 59.3147 117.193 59.9587 117.689 60.5387C118.096 61.0128 118.646 61.3414 119.256 61.4745C119.946 61.5999 120.656 61.5472 121.319 61.3213C121.99 61.1412 122.603 60.7927 123.1 60.309C123.529 59.8572 123.801 59.2788 123.875 58.66C123.965 57.8997 123.95 57.1307 123.832 56.3744C123.69 55.3875 123.469 54.4136 123.172 53.4617H123.162Z" fill="#FFF8F8" stroke="black" stroke-width="0.717992" stroke-miterlimit="10" stroke-linecap="round"/>
<path d="M137.163 38.8482L131.716 40.502L126.271 42.1557C126.154 42.1907 126.044 42.2487 125.949 42.3263C125.855 42.4039 125.776 42.4996 125.718 42.6078C125.661 42.716 125.625 42.8346 125.614 42.9566C125.602 43.0787 125.615 43.2018 125.651 43.3189L125.915 44.1565L126.173 45.0014C126.202 45.0986 126.25 45.1891 126.314 45.2676C126.378 45.3461 126.457 45.411 126.547 45.4585C126.636 45.5065 126.734 45.5363 126.835 45.5462C126.936 45.556 127.038 45.5457 127.135 45.5159L130.886 44.3791L134.636 43.2399C134.731 43.211 134.831 43.2062 134.928 43.2258C135.025 43.2454 135.116 43.2889 135.192 43.3523C135.268 43.4157 135.327 43.4971 135.363 43.589C135.4 43.681 135.413 43.7806 135.402 43.8789L134.418 52.1741L133.444 60.4574C133.433 60.5557 133.446 60.6553 133.482 60.7473C133.519 60.8392 133.578 60.9205 133.654 60.984C133.73 61.0474 133.821 61.0909 133.918 61.1105C134.015 61.1301 134.115 61.1253 134.21 61.0964L135.555 60.6895L136.898 60.2803C137.01 60.2463 137.11 60.1797 137.185 60.0888C137.259 59.9986 137.306 59.8889 137.319 59.7729L138.276 50.506L139.233 41.2415V41.2056V41.1649L139.02 40.4469L138.805 39.7289C138.754 39.5602 138.67 39.4031 138.558 39.2669C138.446 39.1306 138.308 39.0178 138.153 38.9348C137.997 38.8519 137.827 38.8005 137.651 38.7836C137.475 38.7667 137.298 38.7846 137.13 38.8362L137.163 38.8482Z" fill="#FFF8F8" stroke="black" stroke-width="0.717992" stroke-miterlimit="10" stroke-linecap="round"/>
<path d="M90.2351 88.7726L89.5913 89.031L88.9188 89.3087C88.1529 89.6222 85.3767 90.5508 81.9208 91.7929C78.4648 93.0351 74.3316 94.5931 70.8517 96.1679C70.2841 96.4142 69.7346 96.7006 69.2075 97.0247C68.4865 97.4715 67.8296 98.0142 67.2546 98.6378C66.5971 99.3544 66.0501 100.165 65.6319 101.043C65.3624 101.616 65.1384 102.209 64.9618 102.817C64.5938 104.06 64.3391 105.335 64.2007 106.624C64.0695 107.85 64.0175 109.083 64.0452 110.315C64.0834 112.053 64.2675 113.784 64.5956 115.491C64.9224 117.2 65.3826 118.881 65.9718 120.517L73.2115 140.688L80.4537 160.859C82.8055 160.017 85.1733 159.177 87.557 158.341C89.9407 157.505 92.3341 156.671 94.7369 155.838C97.0808 155.029 99.4135 154.231 101.735 153.445C104.056 152.658 106.37 151.882 108.676 151.116L103.154 135.985C101.311 130.943 99.4669 125.902 97.6209 120.862L99.8275 119.962L102.034 119.06C100.068 114.013 98.1019 108.966 96.1346 103.92C94.1673 98.8731 92.2008 93.824 90.2351 88.7726Z" fill="#FFC0C0" stroke="black" stroke-width="0.717992" stroke-miterlimit="10" stroke-linecap="round"/>
<path d="M125.237 178.885L89.3377 186.151L53.4381 193.417C54.3289 195.059 55.7226 196.372 57.4147 197.164C59.1067 197.955 61.0079 198.183 62.839 197.814L76.22 195.119L89.601 192.422C90.4236 192.254 91.2259 191.999 91.9943 191.661C92.765 191.323 93.4969 190.902 94.177 190.407L94.7945 189.957L95.4119 189.509C95.491 189.45 95.5832 189.411 95.6808 189.395C95.7783 189.379 95.8782 189.386 95.9722 189.417C96.0661 189.448 96.1512 189.501 96.2203 189.571C96.2895 189.642 96.3405 189.728 96.3693 189.823C96.4671 190.14 96.6789 190.41 96.9639 190.581C97.2489 190.751 97.587 190.81 97.9129 190.747L104.09 189.502L110.267 188.258C110.555 188.201 110.819 188.056 111.021 187.843C111.225 187.631 111.359 187.361 111.404 187.07L111.447 186.793L111.49 186.515C111.5 186.448 111.529 186.385 111.574 186.334C111.618 186.283 111.676 186.245 111.741 186.226C111.806 186.206 111.875 186.205 111.94 186.223C112.005 186.242 112.063 186.278 112.108 186.329L112.428 186.788L112.749 187.248C112.842 187.381 112.972 187.484 113.122 187.544C113.274 187.607 113.441 187.622 113.601 187.587L114.879 187.331L116.155 187.073C116.321 187.04 116.473 186.956 116.59 186.834C116.708 186.711 116.784 186.556 116.81 186.388L116.892 185.867L116.973 185.347C116.983 185.28 117.013 185.217 117.057 185.166C117.101 185.115 117.16 185.077 117.225 185.058C117.289 185.038 117.358 185.037 117.423 185.055C117.488 185.074 117.546 185.11 117.591 185.161L117.794 185.45L117.998 185.742C118.172 185.992 118.415 186.186 118.698 186.299C118.981 186.413 119.29 186.441 119.589 186.381L120.479 186.202L121.37 186.022C122.128 185.868 122.844 185.55 123.466 185.09C124.088 184.629 124.602 184.038 124.971 183.357C125.34 182.677 125.555 181.924 125.602 181.151C125.648 180.379 125.525 179.605 125.24 178.885H125.237Z" fill="#14AF6C" stroke="black" stroke-width="0.717992" stroke-miterlimit="10" stroke-linecap="round"/>
<path d="M117.899 160.931C116.988 159.346 115.889 157.398 114.649 155.125C113.41 152.851 112.033 150.252 110.55 147.356C110.411 147.049 110.241 146.758 110.042 146.487C109.742 146.077 109.375 145.718 108.958 145.427C108.59 145.173 108.179 144.989 107.745 144.884C107.311 144.778 106.861 144.755 106.419 144.814C105.28 144.971 104.155 145.211 103.051 145.532C102.207 145.777 101.377 146.071 100.567 146.413C99.6761 146.77 98.8081 147.182 97.9679 147.646C96.9798 148.205 96.0703 148.893 95.2635 149.692C94.6963 150.254 94.1797 150.865 93.7198 151.518C93.3667 152.017 93.0469 152.539 92.7624 153.081C92.7624 153.081 92.3843 150.927 91.1781 149.292C89.9718 147.657 87.9399 146.525 84.6348 148.574L81.1597 150.795L77.687 153.03C77.4018 153.213 77.1556 153.451 76.9625 153.729C76.7694 154.008 76.6332 154.321 76.5618 154.653C76.4904 154.984 76.4852 155.326 76.5465 155.659C76.6077 155.992 76.7342 156.31 76.9188 156.594L78.6683 159.301L80.4417 162.008C80.9465 162.777 81.2175 163.675 81.2219 164.595C81.2219 166.131 80.468 168.154 77.3926 170.1L71.6056 173.39L65.8186 176.681C64.8772 177.22 63.9279 177.752 62.9706 178.275C62.0132 178.798 61.0559 179.317 60.0986 179.831C58.4233 180.731 55.6542 182.444 53.876 184.778C52.0978 187.111 51.2434 190.064 53.4428 193.451L89.3663 186.199L125.292 178.943C124.06 174.23 122.212 169.726 120.671 166.402C119.13 163.078 117.899 160.931 117.899 160.931Z" fill="#FFF8F8" stroke="black" stroke-width="0.717992" stroke-miterlimit="10" stroke-linecap="round"/>
<path d="M92.7721 153.076C92.8091 154.694 92.6969 156.313 92.437 157.91C92.0063 160.543 91.0465 163.654 88.9404 165.449" stroke="black" stroke-width="0.717992" stroke-miterlimit="10" stroke-linecap="round"/>
<path d="M85.8985 170.363C85.8555 170.366 85.8122 170.366 85.7692 170.363C85.7254 170.356 85.6822 170.345 85.64 170.332L82.768 169.401L79.896 168.467C79.6887 168.397 79.5171 168.248 79.4174 168.053C79.3671 167.955 79.3367 167.848 79.3281 167.739C79.3195 167.629 79.3328 167.519 79.3671 167.414C79.4005 167.309 79.4544 167.212 79.5256 167.128C79.5969 167.043 79.6841 166.974 79.7822 166.924C79.8803 166.874 79.9874 166.843 80.0973 166.835C80.2072 166.826 80.3178 166.839 80.4226 166.873L83.2945 167.807L86.1665 168.738C86.3562 168.799 86.5178 168.926 86.6222 169.096C86.7266 169.266 86.767 169.467 86.7362 169.664C86.7053 169.861 86.6052 170.041 86.4539 170.171C86.3025 170.3 86.1098 170.372 85.9104 170.372L85.8985 170.363Z" fill="#D1B7E5" stroke="black" stroke-width="0.717992" stroke-miterlimit="10" stroke-linecap="round"/>
<path d="M79.2141 175.53C79.1536 175.53 79.0933 175.523 79.0346 175.508C78.9731 175.496 78.9136 175.476 78.8575 175.448L76.1937 174.199L73.53 172.95C73.4301 172.903 73.3403 172.838 73.266 172.756C73.1916 172.675 73.1341 172.58 73.0968 172.476C73.0594 172.372 73.0429 172.262 73.0482 172.152C73.0536 172.042 73.0806 171.934 73.1279 171.835C73.2223 171.634 73.3926 171.479 73.6012 171.403C73.8098 171.328 74.0398 171.339 74.2408 171.433L76.9045 172.682L79.5707 173.934C79.7697 174.03 79.9226 174.201 79.9962 174.409C80.0697 174.618 80.0578 174.847 79.9632 175.046C79.8954 175.193 79.7854 175.317 79.6473 175.401C79.5176 175.483 79.3676 175.528 79.2141 175.53Z" fill="#D1B7E5" stroke="black" stroke-width="0.717992" stroke-miterlimit="10" stroke-linecap="round"/>
<path d="M189.462 227.223L152.87 228.836L116.277 230.449C116.903 232.21 118.079 233.724 119.629 234.769C121.18 235.813 123.025 236.332 124.893 236.251L138.534 235.662L152.176 235.073C153.007 235.036 153.831 234.909 154.634 234.695C155.448 234.479 156.236 234.177 156.984 233.793L157.664 233.446L158.344 233.096C158.431 233.052 158.527 233.029 158.625 233.029C158.723 233.029 158.819 233.053 158.906 233.098C158.992 233.143 159.067 233.208 159.124 233.287C159.181 233.367 159.218 233.459 159.232 233.556C159.281 233.886 159.45 234.186 159.708 234.398C159.965 234.611 160.291 234.721 160.625 234.707L166.919 234.434L173.213 234.164C173.507 234.15 173.79 234.047 174.025 233.869C174.258 233.691 174.431 233.445 174.52 233.166L174.606 232.898L174.695 232.629C174.716 232.566 174.755 232.51 174.806 232.468C174.858 232.425 174.921 232.398 174.987 232.39C175.054 232.381 175.122 232.391 175.183 232.419C175.244 232.447 175.297 232.492 175.334 232.548L175.573 233.053L175.813 233.558C175.883 233.704 175.995 233.825 176.134 233.908C176.273 233.99 176.434 234.03 176.595 234.022L177.895 233.967L179.194 233.912C179.367 233.906 179.535 233.847 179.673 233.742C179.808 233.639 179.908 233.497 179.96 233.335L180.12 232.833L180.283 232.333C180.303 232.268 180.341 232.211 180.393 232.167C180.445 232.123 180.508 232.095 180.575 232.086C180.642 232.077 180.71 232.086 180.771 232.115C180.833 232.143 180.885 232.188 180.922 232.244L181.078 232.562L181.233 232.883C181.367 233.157 181.577 233.385 181.839 233.541C182.1 233.698 182.401 233.773 182.705 233.759L183.612 233.721L184.519 233.683C185.294 233.649 186.052 233.445 186.739 233.086C187.426 232.727 188.026 232.221 188.496 231.605C188.966 230.988 189.295 230.276 189.46 229.519C189.625 228.761 189.621 227.977 189.45 227.221L189.462 227.223Z" fill="#14AF6C" stroke="black" stroke-width="0.717992" stroke-miterlimit="10" stroke-linecap="round"/>
<path d="M184.996 208.349C184.342 206.64 183.56 204.546 182.684 202.11C181.808 199.674 180.851 196.888 179.838 193.798C179.619 192.977 179.179 192.232 178.565 191.644C177.913 191.022 177.053 190.665 176.153 190.644C175.004 190.621 173.855 190.683 172.716 190.828C171.844 190.938 170.979 191.097 170.126 191.307C169.19 191.521 168.269 191.792 167.367 192.12C166.304 192.52 165.298 193.059 164.377 193.724C163.73 194.191 163.125 194.715 162.57 195.289C162.147 195.727 161.752 196.194 161.391 196.684C161.391 196.684 161.35 194.504 160.412 192.697C159.474 190.89 157.643 189.464 154.06 190.964L150.283 192.64L146.504 194.315C146.194 194.452 145.914 194.649 145.681 194.894C145.447 195.139 145.264 195.428 145.142 195.744C145.02 196.061 144.962 196.398 144.971 196.736C144.979 197.075 145.055 197.409 145.193 197.718L146.502 200.662L147.813 203.608C148.193 204.445 148.322 205.375 148.184 206.284C147.945 207.804 146.887 209.685 143.556 211.13L137.333 213.485L131.11 215.838C130.089 216.226 129.066 216.603 128.04 216.97C127.014 217.337 125.986 217.698 124.957 218.054C123.15 218.684 120.159 219.947 118.017 221.977C115.875 224.006 114.623 226.797 116.274 230.483L152.892 228.886L189.51 227.29C189.031 222.441 187.896 217.705 186.877 214.182C185.857 210.659 184.996 208.349 184.996 208.349Z" fill="#FFF8F8" stroke="black" stroke-width="0.717992" stroke-miterlimit="10" stroke-linecap="round"/>
<path d="M161.39 196.692C161.177 198.296 160.816 199.878 160.311 201.416C159.473 203.96 158.047 206.868 155.687 208.323" stroke="black" stroke-width="0.717992" stroke-miterlimit="10" stroke-linecap="round"/>
<path d="M152.047 212.715C151.983 212.715 151.92 212.707 151.858 212.693C151.793 212.678 151.73 212.655 151.671 212.624L148.969 211.257L146.27 209.893C146.073 209.794 145.922 209.623 145.851 209.414C145.783 209.203 145.801 208.973 145.901 208.775C146.002 208.577 146.176 208.427 146.387 208.357C146.598 208.287 146.828 208.305 147.026 208.404L149.726 209.773L152.428 211.14C152.595 211.225 152.73 211.365 152.809 211.536C152.887 211.707 152.906 211.899 152.863 212.082C152.819 212.265 152.714 212.428 152.566 212.545C152.418 212.661 152.235 212.725 152.047 212.724V212.715Z" fill="#D1B7E5" stroke="black" stroke-width="0.717992" stroke-miterlimit="10" stroke-linecap="round"/>
<path d="M144.645 216.783C144.563 216.783 144.483 216.771 144.405 216.747C144.32 216.724 144.24 216.688 144.166 216.64L141.73 214.991L139.291 213.344C139.107 213.219 138.979 213.026 138.937 212.808C138.905 212.645 138.923 212.477 138.987 212.324C139.051 212.172 139.16 212.041 139.298 211.95C139.436 211.859 139.599 211.811 139.764 211.812C139.93 211.813 140.092 211.863 140.229 211.956L142.668 213.603L145.104 215.252C145.195 215.313 145.274 215.392 145.335 215.484C145.395 215.575 145.438 215.678 145.458 215.786C145.479 215.894 145.479 216.006 145.456 216.113C145.434 216.221 145.391 216.324 145.329 216.415C145.252 216.53 145.146 216.624 145.023 216.688C144.906 216.749 144.776 216.781 144.645 216.783Z" fill="#D1B7E5" stroke="black" stroke-width="0.717992" stroke-miterlimit="10" stroke-linecap="round"/>
<path d="M91.9439 61.3453C91.9438 65.3779 90.5454 69.2857 87.987 72.4029C85.4286 75.52 81.8685 77.6537 77.9134 78.4403C73.9582 79.2269 69.8527 78.6177 66.2963 76.7166C62.7399 74.8155 59.9527 71.7401 58.4096 68.0144C56.8665 64.2887 56.663 60.1432 57.8337 56.2843C59.0045 52.4253 61.477 49.0917 64.8301 46.8514C68.1831 44.6111 72.2093 43.6028 76.2224 43.9981C80.2356 44.3935 83.9876 46.1682 86.839 49.0198C88.4599 50.6367 89.7453 52.5579 90.6213 54.6731C91.4974 56.7883 91.9469 59.0558 91.9439 61.3453Z" fill="#FFF8F8" stroke="black" stroke-width="0.717992" stroke-miterlimit="10" stroke-linecap="round"/>
<mask id="mask0_414_821" style="mask-type:luminance" maskUnits="userSpaceOnUse" x="57" y="43" width="35" height="36">
<path d="M91.9439 61.3453C91.9438 65.3779 90.5454 69.2857 87.987 72.4029C85.4286 75.52 81.8685 77.6537 77.9134 78.4403C73.9582 79.2269 69.8527 78.6177 66.2963 76.7166C62.7399 74.8155 59.9527 71.7401 58.4096 68.0144C56.8665 64.2887 56.663 60.1432 57.8337 56.2843C59.0045 52.4253 61.477 49.0917 64.8301 46.8514C68.1831 44.6111 72.2093 43.6028 76.2224 43.9981C80.2356 44.3935 83.9876 46.1682 86.839 49.0198C88.4599 50.6367 89.7453 52.5579 90.6213 54.6731C91.4974 56.7883 91.9469 59.0558 91.9439 61.3453Z" fill="white"/>
</mask>
<g mask="url(#mask0_414_821)">
<path d="M55.5872 51.4514L53.8162 54.7637L52.0427 58.0761L54.6682 60.6369L57.296 63.1977L60.6897 61.4674L64.0858 59.737L63.5569 56.1064L63.0304 52.4781L59.3088 51.9636L55.5872 51.4514Z" fill="black" stroke="black" stroke-width="0.717992" stroke-miterlimit="10" stroke-linecap="round"/>
<path d="M68.882 72.3856L65.1508 72.364L61.422 72.3401L60.5222 75.7817L59.6199 79.2233L62.7934 81.3725L65.9669 83.524L68.8293 81.4108L71.6917 79.2975L70.2868 75.8415L68.882 72.3856Z" fill="black" stroke="black" stroke-width="0.717992" stroke-miterlimit="10" stroke-linecap="round"/>
<path d="M88.6507 73.228L85.1685 72.6776L81.6838 72.1247L80.0827 75.2671L78.4816 78.4095L80.9778 80.9034L83.4692 83.3972L86.6116 81.7961L89.754 80.1949L89.2036 76.7103L88.6507 73.228Z" fill="black" stroke="black" stroke-width="0.717992" stroke-miterlimit="10" stroke-linecap="round"/>
<path d="M84.8599 53.1578L85.1758 56.6712L85.4917 60.1822L88.9309 60.9672L92.3701 61.7522L94.177 58.7246L95.9864 55.6971L93.6672 53.0429L91.3457 50.3864L88.1028 51.7721L84.8599 53.1578Z" fill="black" stroke="black" stroke-width="0.717992" stroke-miterlimit="10" stroke-linecap="round"/>
<path d="M77.6439 42.084L74.1233 42.2874L70.6004 42.4932L69.7077 45.9061L68.8174 49.3165L71.7851 51.2192L74.7552 53.1243L77.4812 50.8889L80.2095 48.6536L78.9267 45.3676L77.6439 42.084Z" fill="black" stroke="black" stroke-width="0.717992" stroke-miterlimit="10" stroke-linecap="round"/>
<path d="M75.107 57.6525L72.2542 59.7251L69.4014 61.7977L70.4927 65.1531L71.5817 68.5061H75.107H78.6348L79.7237 65.1531L80.815 61.7977L77.9622 59.7251L75.107 57.6525Z" fill="black" stroke="black" stroke-width="0.717992" stroke-miterlimit="10" stroke-linecap="round"/>
<path d="M64.2413 59.658L66.8213 60.7278L69.4013 61.7976" fill="black"/>
<path d="M64.2413 59.658L66.8213 60.7278L69.4013 61.7976" stroke="black" stroke-width="0.717992" stroke-miterlimit="10" stroke-linecap="round"/>
<path d="M63.1382 52.6911L65.9766 51.0038L68.8175 49.3165" fill="black"/>
<path d="M63.1382 52.6911L65.9766 51.0038L68.8175 49.3165" stroke="black" stroke-width="0.717992" stroke-miterlimit="10" stroke-linecap="round"/>
<path d="M74.7552 53.1243L74.9324 55.3883L75.1071 57.6524" fill="black"/>
<path d="M74.7552 53.1243L74.9324 55.3883L75.1071 57.6524" stroke="black" stroke-width="0.717992" stroke-miterlimit="10" stroke-linecap="round"/>
<path d="M85.4917 60.1822L83.1534 60.9911L80.8152 61.7977" fill="black"/>
<path d="M85.4917 60.1822L83.1534 60.9911L80.8152 61.7977" stroke="black" stroke-width="0.717992" stroke-miterlimit="10" stroke-linecap="round"/>
<path d="M78.6348 68.506L80.1593 70.3154L81.6838 72.1247" fill="black"/>
<path d="M78.6348 68.506L80.1593 70.3154L81.6838 72.1247" stroke="black" stroke-width="0.717992" stroke-miterlimit="10" stroke-linecap="round"/>
<path d="M71.5816 68.506L70.2892 70.3154L68.9968 72.1247" fill="black"/>
<path d="M71.5816 68.506L70.2892 70.3154L68.9968 72.1247" stroke="black" stroke-width="0.717992" stroke-miterlimit="10" stroke-linecap="round"/>
<path d="M80.2096 48.6536L82.5359 50.9057L84.8598 53.1578" fill="black"/>
<path d="M80.2096 48.6536L82.5359 50.9057L84.8598 53.1578" stroke="black" stroke-width="0.717992" stroke-miterlimit="10" stroke-linecap="round"/>
</g>
<path d="M53.4381 67.4745C53.3168 68.2212 53.287 68.9799 53.3496 69.7338C53.4806 71.3138 54.0224 72.8321 54.9212 74.1382C55.82 75.4442 57.0446 76.4926 58.4736 77.1794" stroke="black" stroke-width="0.717992" stroke-miterlimit="10" stroke-linecap="round"/>
<path d="M49.7835 71.457C49.554 72.5437 49.68 73.6755 50.1428 74.6852C50.6056 75.6949 51.3808 76.529 52.3539 77.0645" stroke="black" stroke-width="0.717992" stroke-miterlimit="10" stroke-linecap="round"/>
<path d="M140.526 165.449C141.286 165.844 142.089 166.15 142.919 166.361C144.223 166.694 145.577 166.784 146.913 166.624C148.29 166.457 149.624 166.034 150.846 165.378C151.626 164.96 152.358 164.455 153.026 163.874" stroke="black" stroke-width="0.717992" stroke-miterlimit="10" stroke-linecap="round"/>
<path d="M97.621 120.855L95.2014 121.63L92.7817 122.406" stroke="black" stroke-width="0.717992" stroke-miterlimit="10" stroke-linecap="round"/>
</g>
<defs>
<filter id="filter0_i_414_821" x="0.0266113" y="0" width="239.331" height="242.75" filterUnits="userSpaceOnUse" color-interpolation-filters="sRGB">
<feFlood flood-opacity="0" result="BackgroundImageFix"/>
<feBlend mode="normal" in="SourceGraphic" in2="BackgroundImageFix" result="shape"/>
<feColorMatrix in="SourceAlpha" type="matrix" values="0 0 0 0 0 0 0 0 0 0 0 0 0 0 0 0 0 0 127 0" result="hardAlpha"/>
<feOffset dy="3.41901"/>
<feGaussianBlur stdDeviation="1.7095"/>
<feComposite in2="hardAlpha" operator="arithmetic" k2="-1" k3="1"/>
<feColorMatrix type="matrix" values="0 0 0 0 0 0 0 0 0 0 0 0 0 0 0 0 0 0 0.25 0"/>
<feBlend mode="normal" in2="shape" result="effect1_innerShadow_414_821"/>
</filter>
</defs>
</svg>
