<svg width="268" height="267" viewBox="0 0 268 267" fill="none" xmlns="http://www.w3.org/2000/svg">
<path d="M148.968 160.777C148.926 163.852 149.137 166.926 149.598 169.967C150.139 173.522 151.047 177.012 152.308 180.38C152.546 181.015 152.794 181.635 153.048 182.249C153.301 182.863 153.563 183.445 153.83 184.019C155.895 190.874 157.96 197.727 160.024 204.578L166.216 225.137L183.002 221.452L199.789 217.765L193.861 187.45C191.887 177.347 189.911 167.243 187.934 157.14L168.443 158.958L148.968 160.777Z" fill="#FFC0C0" stroke="black" stroke-width="0.801" stroke-miterlimit="10" stroke-linecap="round"/>
<path d="M169.479 17.9477C167.083 17.7864 164.677 17.8812 162.302 18.2307C159.921 18.581 157.582 19.1742 155.323 20.001L136.227 26.983L117.136 33.9624L116.642 34.152L116.151 34.3549C116.135 34.4296 115.409 37.5776 115.638 45.3846C115.868 53.1917 117.048 65.6499 120.845 84.3426L121.806 88.0806C122.126 89.3266 122.446 90.5726 122.765 91.8186L150.287 84.7965L177.809 77.7931L171.321 59.5864L164.833 41.385C164.286 39.8675 163.84 38.3155 163.498 36.7392C163.162 35.1606 162.941 33.5597 162.836 31.9492C162.401 25.3917 163.995 21.8993 165.73 20.041C167.466 18.1827 169.348 17.9611 169.479 17.9477Z" fill="#104FC1" stroke="black" stroke-width="0.801" stroke-miterlimit="10" stroke-linecap="round"/>
<path d="M116.151 34.3549C115.708 34.5214 115.276 34.714 114.856 34.9316C114.506 35.1131 114.239 35.276 114.055 35.3855C108.477 38.9259 105.34 47.8864 103.319 56.1928C101.298 64.4992 100.398 72.1567 99.2873 73.0912C99.0203 73.3208 98.7292 73.5344 98.513 73.6893C98.2967 73.8442 98.1472 73.9563 98.1472 73.9563C97.7537 74.2192 97.3464 74.4607 96.927 74.6799C96.5932 74.8534 96.3476 74.9629 96.2435 75.011C95.1167 75.5209 92.9353 76.7785 90.3267 78.3458C87.7181 79.9131 84.6824 81.7901 81.8388 83.5496C81.174 83.9581 80.7975 84.1958 80.5038 84.38C80.2101 84.5642 79.9912 84.695 79.6494 84.8953C78.7763 85.4133 77.735 86.0087 76.5389 86.6441C75.3427 87.2796 73.997 87.9551 72.5098 88.644C68.7345 90.3635 65.0125 92.7317 62.233 94.6675C59.4535 96.6032 57.6219 98.1145 57.6219 98.1145C57.3952 98.241 57.189 98.4012 57.0105 98.5897C56.646 98.9524 56.4234 99.4335 56.383 99.9461C56.383 99.9781 56.383 100.007 56.383 100.037V100.125C56.3908 100.423 56.4742 100.714 56.6256 100.971C56.7769 101.228 56.9912 101.442 57.2481 101.593C57.5049 101.75 57.7958 101.843 58.0961 101.864C58.3964 101.884 58.6972 101.832 58.9729 101.711L61.0128 100.83L63.05 99.9461C62.3425 100.873 61.3813 102.149 60.3613 103.553C59.3414 104.958 58.2681 106.49 57.3389 107.927C57.3389 107.927 57.2214 108.092 57.0372 108.397C56.853 108.701 56.594 109.144 56.3136 109.702C55.8619 110.604 55.4885 111.543 55.1976 112.508C54.9796 113.234 54.8075 113.972 54.6822 114.719C54.6132 115.135 54.6956 115.561 54.9145 115.921C55.1306 116.279 55.4693 116.546 55.8677 116.674C56.2145 116.77 56.5845 116.741 56.9117 116.591C57.3059 116.417 57.6543 116.154 57.929 115.822C58.0651 115.664 57.7901 116.166 57.5578 116.858C57.3255 117.549 57.1386 118.425 57.4457 119.015C57.534 119.182 57.6547 119.329 57.8008 119.448C57.9132 119.54 58.0359 119.619 58.1666 119.683C58.375 119.736 58.5895 119.762 58.8047 119.76C59.0612 119.76 59.3136 119.696 59.539 119.573C59.9216 119.323 60.2136 118.956 60.372 118.527C60.5402 118.155 60.639 117.848 60.7698 117.867C60.9007 117.886 60.8927 118.086 60.9461 118.364C60.9945 118.705 61.14 119.026 61.3653 119.288C61.4832 119.412 61.618 119.519 61.7658 119.605C62.0346 119.771 62.3524 119.839 62.6655 119.798C62.863 119.768 63.0512 119.694 63.2156 119.581C63.3227 119.51 63.4204 119.426 63.5066 119.33L64.7562 117.632L66.0084 115.934C66.0209 116.126 66.0605 116.316 66.1259 116.497C66.2396 116.824 66.456 117.105 66.7426 117.298C66.9488 117.435 67.1854 117.518 67.4315 117.541C67.592 117.561 67.7542 117.561 67.9148 117.541C68.4605 117.464 68.9606 117.194 69.3245 116.78C69.5415 116.548 69.7265 116.288 69.8745 116.006C70.2951 115.34 70.7561 114.699 71.2549 114.089C73.0789 111.883 75.3843 110.125 77.994 108.949C79.1874 108.42 80.4158 107.974 81.6706 107.614C84.1056 106.869 86.4926 105.972 88.8796 105.105C91.2663 104.21 93.6975 103.44 96.1634 102.795C99.063 102.071 102.619 100.79 106.87 98.4509C111.121 96.112 116.06 92.7157 121.723 87.7709C120.826 83.8166 120.079 80.1587 119.454 76.8533C118.829 73.5478 118.327 70.5974 117.927 68.0583C117.264 63.8744 116.698 60.2619 116.295 56.6681C115.867 52.9274 115.648 49.1657 115.638 45.4006C115.638 43.0858 115.694 40.9765 115.793 39.1208C115.892 37.2652 116.025 35.6471 116.151 34.3549Z" fill="#FFC0C0" stroke="black" stroke-width="0.801" stroke-miterlimit="10" stroke-linecap="round"/>
<path d="M177.809 77.7931L150.287 84.7965L122.765 91.8026L116.843 93.7837L110.918 95.7649L119.246 117.718L127.573 139.673L135.156 137.46L142.742 135.246L143.42 143.523L144.101 151.8L168.726 149.309L193.351 146.818C192.865 137.118 191.776 121.744 189.411 107.857C187.045 93.9706 183.395 81.5525 177.809 77.7931Z" fill="#104FC1" stroke="black" stroke-width="0.801" stroke-miterlimit="10" stroke-linecap="round"/>
<path d="M101.138 99.0356L109.596 120.743L118.055 142.45L122.815 141.061L127.573 139.673L119.246 117.718L110.918 95.7649L106.029 97.4016L101.138 99.0356Z" fill="#F7CE21" stroke="black" stroke-width="0.801" stroke-miterlimit="10" stroke-linecap="round"/>
<path d="M144.101 151.784L144.485 156.462L144.872 161.15L169.297 158.87L193.723 156.593C193.723 156.593 193.704 155.637 193.648 153.923C193.592 152.209 193.501 149.771 193.351 146.783L168.726 149.274L144.101 151.784Z" fill="#F7CE21" stroke="black" stroke-width="0.801" stroke-miterlimit="10" stroke-linecap="round"/>
<path d="M188.951 105.251L175.529 109.427L162.107 113.606L176.4 116.174L190.689 118.74L189.819 111.996L188.951 105.251Z" fill="black" stroke="black" stroke-width="0.801" stroke-miterlimit="10" stroke-linecap="round"/>
<path d="M147.112 15.1309L141.439 15.6649L135.762 16.1989C135.998 17.7168 136.432 19.1972 137.054 20.6017C137.918 22.555 139.177 24.3079 140.752 25.7494C141.613 26.532 142.56 27.2137 143.575 27.7813C144.39 28.2388 145.244 28.6238 146.127 28.9321C146.675 27.7929 147.103 26.6002 147.406 25.373C147.717 24.0962 147.896 22.7908 147.94 21.4775C147.982 20.3865 147.929 19.2939 147.783 18.212C147.647 17.1679 147.422 16.1371 147.112 15.1309Z" fill="black" stroke="black" stroke-width="0.801" stroke-miterlimit="10" stroke-linecap="round"/>
<path d="M141.708 26.5558C141.377 26.2888 141.121 26.0752 140.926 25.8909C140.731 25.7067 140.59 25.5625 140.494 25.4557C140.397 25.3489 140.36 25.3062 140.304 25.2394L140.16 25.0686L140.307 25.1006L140.48 25.1326L140.63 25.154C140.72 25.154 140.843 25.1754 140.963 25.1807C141.631 25.2131 142.297 25.0833 142.904 24.8023C143.511 24.5214 144.041 24.0976 144.448 23.5673C144.856 23.037 145.128 22.4159 145.244 21.7572C145.359 21.0984 145.313 20.4216 145.109 19.7846C144.906 19.1475 144.551 18.5692 144.075 18.0991C143.6 17.629 143.017 17.2811 142.378 17.0851C141.739 16.8891 141.061 16.8509 140.404 16.9736C139.747 17.0964 139.129 17.3766 138.603 17.7901C137.822 18.4053 137.276 19.2708 137.057 20.2412C136.908 19.9742 136.753 19.6485 136.601 19.2987C136.44 18.9255 136.299 18.5441 136.179 18.1559C136.067 17.7955 135.981 17.4511 135.912 17.1253C135.842 16.7996 135.797 16.4952 135.762 16.2148L126.076 17.1307L116.378 18.0358C116.319 18.4069 116.271 18.778 116.234 19.1545C116.197 19.531 116.17 19.9128 116.154 20.2946C115.948 24.8424 117.443 29.3039 120.348 32.8089C123.106 36.077 127.007 38.1783 131.397 38.3411C134.478 38.4505 137.517 37.5966 140.09 35.8981C142.696 34.171 144.78 31.7639 146.117 28.9374C145.563 28.742 145.02 28.5174 144.49 28.2646C144.015 28.0403 143.609 27.8187 143.276 27.6211C143.089 27.5116 142.854 27.3701 142.587 27.1912C142.32 27.0123 142.026 26.8041 141.708 26.5558Z" fill="#FFC0C0" stroke="black" stroke-width="0.801" stroke-miterlimit="10" stroke-linecap="round"/>
<path d="M136.707 26.3102C136.686 26.8233 136.488 27.3133 136.146 27.6966C135.804 28.0799 135.34 28.3329 134.832 28.4126C134.325 28.4922 133.806 28.3936 133.363 28.1335C132.92 27.8733 132.581 27.4678 132.403 26.9858C132.226 26.5039 132.221 25.9753 132.389 25.49C132.557 25.0048 132.889 24.5928 133.327 24.3243C133.764 24.0558 134.282 23.9473 134.791 24.0173C135.299 24.0873 135.768 24.3314 136.117 24.7082C136.317 24.9226 136.472 25.1747 136.574 25.4498C136.675 25.7248 136.72 26.0173 136.707 26.3102Z" fill="#EF3F3F" stroke="black" stroke-width="0.801" stroke-miterlimit="10" stroke-linecap="round"/>
<path d="M125.958 31.6262C125.936 32.1379 125.738 32.6263 125.397 33.0083C125.056 33.3903 124.593 33.6423 124.087 33.7215C123.58 33.8007 123.063 33.7021 122.621 33.4426C122.179 33.1831 121.841 32.7786 121.664 32.298C121.487 31.8174 121.482 31.2902 121.65 30.8063C121.818 30.3223 122.148 29.9114 122.584 29.6435C123.021 29.3755 123.537 29.267 124.044 29.3364C124.552 29.4058 125.019 29.6488 125.368 30.0242C125.568 30.2386 125.723 30.4907 125.824 30.7658C125.926 31.0408 125.971 31.3333 125.958 31.6262Z" fill="#EF3F3F" stroke="black" stroke-width="0.801" stroke-miterlimit="10" stroke-linecap="round"/>
<path d="M127.058 32.1227C127.646 32.3063 128.27 32.3384 128.874 32.2162C129.853 32.0052 130.975 31.2843 131.544 29.2365" stroke="black" stroke-width="0.801" stroke-miterlimit="10" stroke-linecap="round"/>
<path d="M122.765 26.8656C122.757 27.0724 122.678 27.2702 122.541 27.4252C122.404 27.5803 122.217 27.6829 122.012 27.7157C121.808 27.7485 121.599 27.7094 121.42 27.6051C121.241 27.5007 121.104 27.3376 121.032 27.1436C120.96 26.9495 120.958 26.7365 121.025 26.5408C121.093 26.3451 121.226 26.1789 121.402 26.0705C121.579 25.9622 121.787 25.9183 121.992 25.9464C122.197 25.9745 122.386 26.0729 122.527 26.2248C122.607 26.3105 122.669 26.4113 122.71 26.5213C122.751 26.6313 122.769 26.7483 122.765 26.8656Z" fill="#231F20"/>
<path d="M131.498 23.496C131.492 23.6727 131.433 23.8436 131.33 23.987C131.226 24.1303 131.082 24.2398 130.917 24.3015C130.751 24.3632 130.57 24.3744 130.398 24.3337C130.226 24.293 130.07 24.2022 129.95 24.0727C129.789 23.8983 129.703 23.6672 129.712 23.43C129.721 23.1928 129.824 22.9688 129.998 22.8071C130.127 22.6874 130.29 22.6087 130.464 22.581C130.638 22.5533 130.817 22.5779 130.978 22.6515C131.138 22.7252 131.273 22.8447 131.366 22.9949C131.458 23.1452 131.504 23.3195 131.498 23.496Z" fill="#231F20"/>
<path d="M121.304 21.8647L126.049 20.1212L130.796 18.3777" stroke="black" stroke-width="0.801" stroke-miterlimit="10" stroke-linecap="round"/>
<path d="M123.729 20.9756L125.034 25.0073L126.337 29.0417L126.892 28.812L127.445 28.5851" stroke="black" stroke-width="0.801" stroke-miterlimit="10" stroke-linecap="round"/>
<path d="M132.713 3.43627C128.763 3.31221 124.923 4.74476 122.02 7.42525C118.979 10.2116 116.988 13.9572 116.378 18.0358L131.741 16.5833L147.102 15.1309C146.122 11.9193 144.232 9.06077 141.66 6.90193C139.142 4.79029 135.996 3.57166 132.713 3.43627Z" fill="#F9851C" stroke="black" stroke-width="0.801" stroke-miterlimit="10" stroke-linecap="round"/>
<path d="M139.77 22.3666L141.107 21.3386L142.445 20.308" stroke="black" stroke-width="0.801" stroke-miterlimit="10" stroke-linecap="round"/>
<path d="M122.22 17.4858C122.46 19.1139 122.204 20.7766 121.486 22.2571C120.805 23.6703 119.679 24.8212 118.282 25.5332C117.764 25.7952 117.213 25.9873 116.645 26.1045C114.81 26.4735 112.904 26.1124 111.332 25.0979C110.53 24.5833 109.853 23.8968 109.35 23.0882C108.847 22.2796 108.529 21.3691 108.421 20.4228C108.356 19.8411 108.375 19.2529 108.477 18.6766C108.718 17.4193 109.302 16.2532 110.165 15.3071C110.585 14.8196 111.098 14.42 111.674 14.1313C112.249 13.8426 112.876 13.6706 113.518 13.625C114.317 13.603 115.108 13.7839 115.817 14.1509C116.285 14.3838 116.721 14.6754 117.115 15.0187C117.016 15.3071 116.92 15.6114 116.832 15.9318C116.744 16.2522 116.658 16.5913 116.584 16.9438C116.541 17.1342 116.503 17.3211 116.471 17.5045C116.439 17.686 116.41 17.8676 116.383 18.0385L119.302 17.7715L122.22 17.4858Z" fill="black" stroke="black" stroke-width="0.801" stroke-miterlimit="10" stroke-linecap="round"/>
<path d="M118.055 12.7065L131.565 11.7293L145.075 10.7521" stroke="black" stroke-width="0.801" stroke-miterlimit="10" stroke-linecap="round"/>
<path d="M122.142 12.4128L122.046 14.96L121.953 17.5099" stroke="black" stroke-width="0.801" stroke-miterlimit="10" stroke-linecap="round"/>
<path d="M127.48 12.063L127.389 14.4713L127.298 16.8823" stroke="black" stroke-width="0.801" stroke-miterlimit="10" stroke-linecap="round"/>
<path d="M133.995 11.6545L133.906 14.0228L133.818 16.3885" stroke="black" stroke-width="0.801" stroke-miterlimit="10" stroke-linecap="round"/>
<path d="M140.638 11.166L140.552 13.4061L140.469 15.6463" stroke="black" stroke-width="0.801" stroke-miterlimit="10" stroke-linecap="round"/>
<path d="M66.3155 102.608C66.3155 102.608 65.1754 103.524 63.5574 105.633C61.9394 107.743 59.8381 111.045 57.9183 115.819" stroke="black" stroke-width="0.801" stroke-miterlimit="10" stroke-linecap="round"/>
<path d="M69.4206 104.442C68.288 105.69 67.2238 106.999 66.2327 108.362C64.4464 110.789 62.2811 114.142 60.7592 117.864" stroke="black" stroke-width="0.801" stroke-miterlimit="10" stroke-linecap="round"/>
<path d="M72.2723 106.504C72.2723 106.504 71.0147 108.05 69.6023 109.999C68.1899 111.948 66.6199 114.305 65.9978 115.931" stroke="black" stroke-width="0.801" stroke-miterlimit="10" stroke-linecap="round"/>
<path d="M209.932 70.6935L203.212 54.5213L196.491 38.3518C193.65 31.4899 189.803 26.8548 185.63 23.763C181.878 20.9958 177.528 19.1484 172.931 18.3696C172.358 18.2681 171.784 18.1791 171.209 18.1026C170.634 18.026 170.057 17.9708 169.479 17.937C169.348 17.937 167.471 18.1746 165.741 20.0303C164.011 21.8859 162.411 25.3703 162.847 31.9385C162.955 33.5465 163.179 35.1447 163.517 36.7205C163.859 38.2968 164.305 39.8488 164.852 41.3663L171.34 59.5757L177.828 77.7824L166.232 84.3426L154.639 90.9001C153.088 90.3127 150.995 90.7159 149.299 91.2659C148.259 91.6018 147.248 92.0196 146.274 92.5154L139.233 95.7195L132.195 98.9235C131.733 99.1455 131.303 99.4284 130.916 99.7645C130.273 100.278 129.844 101.013 129.715 101.826C129.702 101.943 129.697 102.06 129.699 102.178C129.701 102.313 129.714 102.448 129.736 102.581C129.802 102.809 129.899 103.026 130.024 103.227C130.181 103.483 130.399 103.695 130.657 103.847C131.084 104.071 131.578 104.136 132.048 104.028C132.43 103.948 132.802 103.825 133.156 103.663C133.322 103.591 133.484 103.509 133.64 103.417C133.778 103.334 133.891 103.257 133.981 103.193L136.144 102.178L138.272 101.193C138.352 101.148 138.451 101.094 138.563 101.038C138.675 100.982 138.806 100.918 138.95 100.854C139.41 100.629 139.888 100.442 140.379 100.296C140.763 100.164 141.184 100.189 141.551 100.365C141.647 100.423 141.737 100.492 141.818 100.571C141.968 100.716 142.073 100.901 142.119 101.105C142.137 101.298 142.113 101.493 142.051 101.677C141.988 101.861 141.888 102.03 141.756 102.173C141.514 102.469 141.24 102.737 140.939 102.974C139.495 104.159 136.905 105.783 134.203 107.302C131.8 108.68 129.319 109.916 126.772 111.005C126.649 111.053 126.529 111.104 126.409 111.157C126.289 111.211 126.169 111.267 126.051 111.328C124.468 112.167 124.198 113.128 124.327 113.881C124.423 114.363 124.648 114.81 124.978 115.176C124.56 115.213 124.168 115.398 123.872 115.696C123.577 115.995 123.396 116.388 123.363 116.807C123.358 116.896 123.358 116.985 123.363 117.074C123.366 117.164 123.376 117.253 123.392 117.341C123.571 118.265 124.289 118.746 124.962 118.994C125.381 119.145 125.82 119.235 126.265 119.261C126.233 119.613 126.28 119.968 126.401 120.3C126.523 120.632 126.718 120.933 126.97 121.181C127.404 121.562 127.929 121.825 128.494 121.944C128.758 122.005 129.026 122.043 129.295 122.059C129.562 122.074 129.83 122.07 130.096 122.046L132.441 121.84L134.785 121.634C135.052 122.51 135.97 122.833 136.969 122.9C137.873 122.937 138.778 122.856 139.66 122.657C139.94 122.598 140.22 122.542 140.501 122.489L141.343 122.331C148.61 120.996 153.803 119.45 157.419 118.059C161.034 116.668 163.079 115.435 164.046 114.765C164.214 114.644 164.377 114.516 164.531 114.383C164.686 114.249 164.839 114.116 164.991 113.966C165.586 113.455 166.259 113.043 166.985 112.746C167.62 112.467 168.27 112.222 168.932 112.012L169.639 111.782C169.877 111.707 170.112 111.627 170.347 111.547L188.353 105.465L206.357 99.348C206.796 99.1984 207.225 99.02 207.641 98.814C208.059 98.6121 208.458 98.3745 208.835 98.1038C213.569 94.7209 213.844 87.867 212.933 81.8595C212.324 78.0432 211.318 74.3009 209.932 70.6935Z" fill="#FFC0C0" stroke="black" stroke-width="0.801" stroke-miterlimit="10" stroke-linecap="round"/>
<path d="M124.975 115.178C124.975 115.178 128.535 114.377 132.801 113.117C137.068 111.857 142.039 110.143 144.872 108.311" stroke="black" stroke-width="0.801" stroke-miterlimit="10" stroke-linecap="round"/>
<path d="M126.257 119.272C126.257 119.272 129.915 118.62 134.347 117.539C138.779 116.457 143.98 114.941 147.083 113.208" stroke="black" stroke-width="0.801" stroke-miterlimit="10" stroke-linecap="round"/>
<path d="M134.785 121.645C136.182 121.441 137.565 121.153 138.926 120.78C142.387 119.864 145.75 118.612 148.968 117.042" stroke="black" stroke-width="0.801" stroke-miterlimit="10" stroke-linecap="round"/>
<path d="M177.809 77.7931L182.055 75.3901L186.3 72.9738L180.159 70.0928L174.018 67.2119L175.919 72.4958C176.551 74.2634 177.181 76.0291 177.809 77.7931Z" fill="black" stroke="black" stroke-width="0.801" stroke-miterlimit="10" stroke-linecap="round"/>
<path d="M125.857 63.295C125.385 61.8099 125.083 60.2766 124.954 58.724C124.844 57.4622 124.95 56.1909 125.267 54.9646C125.558 53.874 126.159 52.891 126.997 52.1344C128.988 50.5026 131.545 49.7276 134.107 49.9797C135.226 50.146 136.273 50.6329 137.121 51.3814C138.065 52.2276 138.86 53.2257 139.474 54.3345C140.952 57.0794 141.866 60.0925 142.162 63.1962C142.273 64.4647 142.17 65.7429 141.855 66.9769C141.571 68.0728 140.975 69.063 140.141 69.8285C139.158 70.64 138.023 71.2488 136.803 71.62C135.584 71.9912 134.302 72.1173 133.034 71.9912C131.914 71.8254 130.867 71.3385 130.019 70.5894C129.071 69.7397 128.274 68.7359 127.661 67.6204C126.901 66.2501 126.296 64.7994 125.857 63.295ZM137.872 59.6424C137.561 58.5875 137.168 57.5589 136.694 56.5666C136.335 55.8008 135.874 55.0875 135.322 54.4466C134.87 53.9217 134.26 53.5581 133.584 53.4106C132.822 53.2724 132.039 53.3303 131.306 53.5789C130.552 53.7803 129.86 54.1687 129.296 54.7083C128.812 55.2034 128.504 55.8428 128.417 56.5292C128.313 57.3671 128.326 58.2153 128.454 59.0497C128.614 60.1438 128.861 61.2233 129.194 62.2777C129.509 63.3484 129.907 64.3929 130.385 65.4016C130.747 66.1721 131.212 66.8905 131.765 67.5376C132.219 68.0666 132.833 68.4331 133.514 68.5816C134.283 68.7215 135.076 68.6627 135.816 68.4107C136.563 68.2098 137.247 67.821 137.802 67.2813C138.281 66.7774 138.585 66.1321 138.667 65.4417C138.767 64.5935 138.751 63.7356 138.619 62.8918C138.46 61.7909 138.213 60.7044 137.882 59.6424H137.872Z" fill="#FFF8F8" stroke="black" stroke-width="0.801" stroke-miterlimit="10" stroke-linecap="round"/>
<path d="M153.491 43.3395L147.414 45.1844L141.34 47.0294C141.209 47.0685 141.087 47.1331 140.981 47.2197C140.875 47.3063 140.787 47.413 140.723 47.5337C140.659 47.6544 140.619 47.7867 140.606 47.9229C140.593 48.0591 140.608 48.1964 140.648 48.327L140.942 49.2615L141.23 50.204C141.262 50.3125 141.316 50.4135 141.387 50.501C141.459 50.5886 141.547 50.661 141.647 50.714C141.747 50.7676 141.856 50.8008 141.969 50.8118C142.082 50.8228 142.195 50.8113 142.304 50.7781L146.487 49.5098L150.671 48.2389C150.777 48.2067 150.889 48.2013 150.997 48.2232C151.105 48.2451 151.207 48.2936 151.291 48.3643C151.376 48.4351 151.442 48.5258 151.483 48.6284C151.524 48.731 151.539 48.8421 151.526 48.9518L150.428 58.206L149.342 67.4469C149.329 67.5566 149.344 67.6677 149.385 67.7703C149.426 67.8729 149.491 67.9636 149.576 68.0344C149.661 68.1051 149.762 68.1536 149.87 68.1755C149.979 68.1974 150.09 68.192 150.196 68.1598L151.697 67.7059L153.195 67.2493C153.32 67.2114 153.432 67.1371 153.515 67.0357C153.598 66.9351 153.65 66.8127 153.664 66.6833L154.732 56.345L155.8 46.0095V45.9694V45.924L155.563 45.123L155.323 44.322C155.265 44.1337 155.172 43.9586 155.047 43.8066C154.922 43.6545 154.768 43.5287 154.595 43.4361C154.421 43.3436 154.231 43.2863 154.035 43.2674C153.839 43.2485 153.642 43.2685 153.454 43.3261L153.491 43.3395Z" fill="#FFF8F8" stroke="black" stroke-width="0.801" stroke-miterlimit="10" stroke-linecap="round"/>
<path d="M101.138 99.0356L100.419 99.324L99.6692 99.6337C98.8148 99.9835 95.7176 101.019 91.8621 102.405C88.0066 103.791 83.3956 105.529 79.5134 107.286C78.8801 107.561 78.2671 107.88 77.6791 108.242C76.8747 108.74 76.1418 109.346 75.5004 110.041C74.7668 110.841 74.1567 111.745 73.6901 112.725C73.3895 113.364 73.1395 114.025 72.9425 114.703C72.5319 116.091 72.2478 117.512 72.0935 118.951C71.947 120.318 71.8891 121.694 71.9199 123.068C71.9625 125.007 72.168 126.939 72.534 128.844C72.8986 130.75 73.4119 132.624 74.0693 134.451L82.146 156.953L90.2254 179.456C92.8491 178.516 95.4907 177.58 98.15 176.647C100.809 175.714 103.479 174.784 106.16 173.854C108.775 172.952 111.377 172.062 113.967 171.184C116.557 170.307 119.138 169.441 121.71 168.586L115.55 151.707C113.494 146.082 111.437 140.458 109.377 134.835L111.839 133.831L114.301 132.824C112.108 127.194 109.914 121.564 107.719 115.934C105.525 110.304 103.331 104.671 101.138 99.0356Z" fill="#FFC0C0" stroke="black" stroke-width="0.801" stroke-miterlimit="10" stroke-linecap="round"/>
<path d="M140.186 199.566L100.136 207.673L60.0864 215.779C61.0802 217.61 62.6351 219.075 64.5227 219.958C66.4104 220.841 68.5313 221.095 70.5742 220.683L85.5022 217.677L100.43 214.668C101.348 214.481 102.243 214.196 103.1 213.819C103.96 213.442 104.776 212.973 105.535 212.42L106.224 211.918L106.913 211.419C107.001 211.352 107.104 211.309 107.213 211.291C107.322 211.273 107.433 211.281 107.538 211.316C107.643 211.35 107.738 211.409 107.815 211.488C107.892 211.567 107.949 211.663 107.981 211.768C108.09 212.122 108.326 212.424 108.644 212.614C108.962 212.804 109.339 212.87 109.703 212.799L116.594 211.411L123.486 210.022C123.807 209.959 124.101 209.798 124.327 209.56C124.554 209.323 124.703 209.022 124.754 208.698L124.802 208.388L124.85 208.078C124.861 208.004 124.894 207.933 124.943 207.876C124.993 207.819 125.058 207.777 125.13 207.755C125.202 207.733 125.279 207.732 125.351 207.753C125.424 207.773 125.489 207.814 125.539 207.87L125.897 208.383L126.254 208.895C126.358 209.044 126.503 209.159 126.671 209.226C126.84 209.296 127.026 209.313 127.205 209.275L128.631 208.989L130.054 208.7C130.239 208.663 130.409 208.57 130.54 208.434C130.67 208.297 130.756 208.124 130.785 207.937L130.876 207.355L130.967 206.775C130.978 206.701 131.011 206.63 131.06 206.573C131.11 206.516 131.175 206.474 131.247 206.452C131.319 206.43 131.396 206.429 131.468 206.45C131.541 206.47 131.606 206.511 131.656 206.567L131.883 206.89L132.11 207.216C132.304 207.495 132.575 207.711 132.891 207.838C133.206 207.964 133.552 207.996 133.885 207.929L134.878 207.729L135.872 207.528C136.718 207.357 137.516 207.002 138.211 206.488C138.905 205.974 139.478 205.315 139.89 204.555C140.301 203.796 140.541 202.956 140.593 202.094C140.645 201.232 140.507 200.369 140.189 199.566H140.186Z" fill="#14AF6C" stroke="black" stroke-width="0.801" stroke-miterlimit="10" stroke-linecap="round"/>
<path d="M132 179.536C130.983 177.769 129.757 175.595 128.374 173.059C126.991 170.522 125.456 167.623 123.801 164.392C123.647 164.05 123.457 163.725 123.235 163.423C122.899 162.965 122.49 162.565 122.025 162.24C121.614 161.957 121.156 161.752 120.671 161.634C120.187 161.516 119.686 161.49 119.192 161.556C117.922 161.731 116.666 161.998 115.435 162.357C114.493 162.63 113.568 162.958 112.664 163.34C111.67 163.738 110.702 164.197 109.764 164.715C108.662 165.339 107.647 166.107 106.747 166.998C106.114 167.625 105.538 168.307 105.025 169.035C104.631 169.592 104.274 170.175 103.957 170.779C103.957 170.779 103.535 168.376 102.19 166.552C100.844 164.728 98.5771 163.465 94.8898 165.751L91.013 168.229L87.1388 170.722C86.8206 170.926 86.5459 171.191 86.3305 171.502C86.1151 171.813 85.9632 172.163 85.8835 172.532C85.8039 172.902 85.7981 173.283 85.8664 173.655C85.9347 174.027 86.0759 174.381 86.2817 174.698L88.2335 177.718L90.212 180.738C90.7751 181.595 91.0774 182.598 91.0824 183.624C91.0824 185.338 90.2413 187.594 86.8104 189.765L80.3543 193.436L73.8982 197.107C72.8481 197.709 71.789 198.302 70.721 198.886C69.653 199.469 68.585 200.048 67.517 200.621C65.648 201.625 62.5588 203.537 60.575 206.14C58.5911 208.743 57.638 212.038 60.0917 215.816L100.168 207.726L140.248 199.631C138.873 194.373 136.811 189.348 135.092 185.64C133.372 181.931 132 179.536 132 179.536Z" fill="#FFF8F8" stroke="black" stroke-width="0.801" stroke-miterlimit="10" stroke-linecap="round"/>
<path d="M103.968 170.773C104.009 172.579 103.884 174.384 103.594 176.167C103.113 179.104 102.043 182.575 99.6931 184.577" stroke="black" stroke-width="0.801" stroke-miterlimit="10" stroke-linecap="round"/>
<path d="M96.2996 190.059C96.2516 190.063 96.2034 190.063 96.1554 190.059C96.1065 190.051 96.0583 190.039 96.0112 190.024L92.8072 188.985L89.6032 187.944C89.372 187.865 89.1804 187.7 89.0692 187.482C89.0131 187.373 88.9793 187.254 88.9696 187.131C88.96 187.009 88.9748 186.886 89.0132 186.769C89.0504 186.652 89.1105 186.543 89.19 186.449C89.2695 186.355 89.3668 186.278 89.4762 186.222C89.5857 186.166 89.7052 186.132 89.8278 186.123C89.9504 186.113 90.0737 186.128 90.1906 186.166L93.3946 187.207L96.5986 188.246C96.8103 188.314 96.9905 188.456 97.107 188.645C97.2235 188.835 97.2686 189.06 97.2342 189.279C97.1997 189.499 97.0881 189.699 96.9192 189.844C96.7503 189.989 96.5354 190.069 96.3129 190.069L96.2996 190.059Z" fill="#D1B7E5" stroke="black" stroke-width="0.801" stroke-miterlimit="10" stroke-linecap="round"/>
<path d="M88.8423 195.823C88.7748 195.823 88.7076 195.815 88.6421 195.799C88.5735 195.786 88.5071 195.763 88.4445 195.732L85.4728 194.339L82.5011 192.945C82.3896 192.893 82.2895 192.82 82.2066 192.729C82.1236 192.638 82.0595 192.532 82.0178 192.416C81.9761 192.301 81.9577 192.178 81.9636 192.055C81.9696 191.932 81.9998 191.812 82.0525 191.701C82.1579 191.477 82.3478 191.304 82.5805 191.22C82.8133 191.136 83.0699 191.147 83.294 191.252L86.2658 192.646L89.2401 194.042C89.4622 194.15 89.6328 194.34 89.7148 194.573C89.7968 194.805 89.7836 195.061 89.678 195.284C89.6024 195.448 89.4797 195.585 89.3256 195.679C89.1809 195.771 89.0136 195.821 88.8423 195.823Z" fill="#D1B7E5" stroke="black" stroke-width="0.801" stroke-miterlimit="10" stroke-linecap="round"/>
<path d="M211.836 253.492L171.014 255.292L130.19 257.092C130.889 259.057 132.2 260.745 133.93 261.91C135.66 263.075 137.718 263.655 139.802 263.564L155.021 262.907L170.24 262.25C171.166 262.208 172.086 262.067 172.982 261.828C173.89 261.588 174.769 261.25 175.604 260.822L176.362 260.434L177.121 260.045C177.218 259.995 177.325 259.969 177.434 259.97C177.543 259.97 177.651 259.996 177.747 260.047C177.844 260.097 177.928 260.169 177.991 260.258C178.054 260.347 178.095 260.449 178.111 260.557C178.166 260.925 178.355 261.26 178.642 261.497C178.929 261.734 179.293 261.857 179.665 261.841L186.687 261.537L193.709 261.235C194.037 261.22 194.353 261.106 194.614 260.907C194.875 260.708 195.067 260.434 195.167 260.122L195.263 259.823L195.362 259.524C195.386 259.453 195.429 259.391 195.486 259.343C195.544 259.296 195.614 259.266 195.688 259.257C195.762 259.247 195.838 259.258 195.907 259.289C195.975 259.321 196.033 259.37 196.075 259.433L196.342 259.997L196.609 260.56C196.688 260.722 196.812 260.858 196.968 260.95C197.123 261.042 197.302 261.087 197.482 261.078L198.932 261.016L200.382 260.955C200.575 260.948 200.761 260.882 200.916 260.765C201.066 260.651 201.178 260.492 201.236 260.312L201.415 259.751L201.596 259.193C201.619 259.121 201.661 259.057 201.719 259.008C201.777 258.959 201.847 258.928 201.922 258.917C201.996 258.907 202.072 258.918 202.141 258.949C202.21 258.981 202.268 259.031 202.309 259.094L202.483 259.449L202.656 259.807C202.805 260.112 203.04 260.367 203.332 260.541C203.623 260.716 203.959 260.8 204.298 260.784L205.31 260.741L206.322 260.699C207.186 260.661 208.032 260.434 208.798 260.033C209.565 259.632 210.234 259.068 210.759 258.381C211.283 257.693 211.651 256.899 211.834 256.054C212.018 255.208 212.014 254.333 211.823 253.49L211.836 253.492Z" fill="#14AF6C" stroke="black" stroke-width="0.801" stroke-miterlimit="10" stroke-linecap="round"/>
<path d="M206.854 232.437C206.125 230.53 205.252 228.194 204.274 225.476C203.297 222.758 202.229 219.65 201.1 216.203C200.856 215.287 200.364 214.456 199.679 213.8C198.952 213.106 197.993 212.708 196.988 212.684C195.707 212.659 194.425 212.728 193.154 212.89C192.181 213.012 191.217 213.19 190.265 213.424C189.221 213.662 188.193 213.966 187.186 214.331C186 214.778 184.879 215.379 183.852 216.12C183.129 216.641 182.454 217.226 181.836 217.867C181.363 218.356 180.923 218.876 180.519 219.423C180.519 219.423 180.474 216.991 179.427 214.975C178.381 212.959 176.338 211.368 172.341 213.042L168.128 214.911L163.912 216.78C163.566 216.933 163.254 217.152 162.993 217.426C162.733 217.699 162.528 218.022 162.392 218.375C162.257 218.727 162.192 219.103 162.201 219.481C162.211 219.859 162.295 220.231 162.449 220.577L163.909 223.861L165.372 227.147C165.796 228.082 165.94 229.118 165.786 230.133C165.519 231.828 164.339 233.927 160.623 235.539L153.681 238.167L146.739 240.791C145.599 241.224 144.457 241.645 143.313 242.054C142.168 242.463 141.022 242.867 139.874 243.264C137.858 243.966 134.521 245.376 132.131 247.64C129.741 249.904 128.345 253.017 130.187 257.129L171.038 255.348L211.889 253.567C211.355 248.158 210.09 242.874 208.952 238.944C207.815 235.013 206.854 232.437 206.854 232.437Z" fill="#FFF8F8" stroke="black" stroke-width="0.801" stroke-miterlimit="10" stroke-linecap="round"/>
<path d="M180.519 219.431C180.281 221.222 179.878 222.986 179.315 224.702C178.381 227.54 176.789 230.784 174.157 232.408" stroke="black" stroke-width="0.801" stroke-miterlimit="10" stroke-linecap="round"/>
<path d="M170.096 237.307C170.025 237.307 169.954 237.299 169.885 237.283C169.812 237.266 169.742 237.24 169.677 237.206L166.662 235.681L163.65 234.159C163.431 234.049 163.263 233.857 163.183 233.625C163.107 233.389 163.127 233.133 163.239 232.912C163.351 232.691 163.546 232.523 163.781 232.445C164.017 232.368 164.273 232.387 164.494 232.498L167.506 234.026L170.52 235.55C170.708 235.645 170.857 235.801 170.945 235.992C171.033 236.182 171.055 236.397 171.005 236.601C170.956 236.806 170.84 236.988 170.675 237.117C170.51 237.247 170.306 237.318 170.096 237.318V237.307Z" fill="#D1B7E5" stroke="black" stroke-width="0.801" stroke-miterlimit="10" stroke-linecap="round"/>
<path d="M161.837 241.846C161.747 241.846 161.657 241.832 161.57 241.806C161.476 241.78 161.386 241.739 161.303 241.686L158.585 239.846L155.865 238.009C155.659 237.87 155.517 237.655 155.469 237.411C155.434 237.23 155.454 237.042 155.526 236.871C155.598 236.701 155.718 236.556 155.873 236.454C156.027 236.352 156.208 236.299 156.393 236.3C156.578 236.301 156.758 236.357 156.911 236.461L159.632 238.298L162.35 240.137C162.452 240.206 162.539 240.294 162.607 240.396C162.675 240.498 162.722 240.613 162.745 240.734C162.769 240.854 162.768 240.978 162.743 241.099C162.718 241.219 162.67 241.333 162.601 241.435C162.515 241.564 162.397 241.669 162.259 241.739C162.129 241.807 161.984 241.844 161.837 241.846Z" fill="#D1B7E5" stroke="black" stroke-width="0.801" stroke-miterlimit="10" stroke-linecap="round"/>
<path d="M103.044 68.4375C103.044 72.9363 101.484 77.2959 98.6296 80.7735C95.7755 84.251 91.8038 86.6313 87.3914 87.5088C82.979 88.3864 78.3988 87.7068 74.4313 85.5859C70.4637 83.465 67.3543 80.0341 65.6328 75.8776C63.9113 71.7212 63.6843 67.0965 64.9903 62.7914C66.2964 58.4863 69.0548 54.7673 72.7955 52.268C76.5363 49.7687 81.0278 48.6437 85.505 49.0848C89.9822 49.5259 94.1679 51.5057 97.3489 54.687C99.1572 56.4908 100.591 58.6342 101.569 60.994C102.546 63.3537 103.047 65.8833 103.044 68.4375Z" fill="#FFF8F8" stroke="black" stroke-width="0.801" stroke-miterlimit="10" stroke-linecap="round"/>
<mask id="mask0_414_998" style="mask-type:luminance" maskUnits="userSpaceOnUse" x="64" y="48" width="40" height="40">
<path d="M103.044 68.4375C103.044 72.9363 101.484 77.2959 98.6296 80.7735C95.7755 84.251 91.8038 86.6313 87.3914 87.5088C82.979 88.3864 78.3988 87.7068 74.4313 85.5859C70.4637 83.465 67.3543 80.0341 65.6328 75.8776C63.9113 71.7212 63.6843 67.0965 64.9903 62.7914C66.2964 58.4863 69.0548 54.7673 72.7955 52.268C76.5363 49.7687 81.0278 48.6437 85.505 49.0848C89.9822 49.5259 94.1679 51.5057 97.3489 54.687C99.1572 56.4908 100.591 58.6342 101.569 60.994C102.546 63.3537 103.047 65.8833 103.044 68.4375Z" fill="white"/>
</mask>
<g mask="url(#mask0_414_998)">
<path d="M62.4841 57.3999L60.5083 61.0952L58.5298 64.7905L61.4588 67.6474L64.3904 70.5043L68.1765 68.5738L71.9652 66.6434L71.3752 62.5931L70.7878 58.5453L66.6359 57.9713L62.4841 57.3999Z" fill="black" stroke="black" stroke-width="0.801" stroke-miterlimit="10" stroke-linecap="round"/>
<path d="M77.3159 80.7543L73.1534 80.7303L68.9935 80.7036L67.9896 84.5431L66.983 88.3825L70.5235 90.7802L74.0639 93.1805L77.2572 90.8229L80.4505 88.4653L78.8832 84.6098L77.3159 80.7543Z" fill="black" stroke="black" stroke-width="0.801" stroke-miterlimit="10" stroke-linecap="round"/>
<path d="M99.3701 81.6943L95.4852 81.0802L91.5977 80.4634L89.8115 83.9691L88.0253 87.4748L90.8101 90.2569L93.5895 93.0391L97.0953 91.2528L100.601 89.4666L99.9869 85.5791L99.3701 81.6943Z" fill="black" stroke="black" stroke-width="0.801" stroke-miterlimit="10" stroke-linecap="round"/>
<path d="M95.1409 59.3037L95.4933 63.2232L95.8458 67.1401L99.6825 68.0159L103.519 68.8916L105.535 65.5141L107.554 62.1365L104.966 59.1755L102.377 56.2118L98.7587 57.7577L95.1409 59.3037Z" fill="black" stroke="black" stroke-width="0.801" stroke-miterlimit="10" stroke-linecap="round"/>
<path d="M87.0907 46.9496L83.1632 47.1765L79.2329 47.4062L78.237 51.2136L77.2438 55.0183L80.5546 57.141L83.868 59.2663L86.9092 56.7725L89.953 54.2787L88.5219 50.6128L87.0907 46.9496Z" fill="black" stroke="black" stroke-width="0.801" stroke-miterlimit="10" stroke-linecap="round"/>
<path d="M84.2604 64.3179L81.0778 66.6301L77.8951 68.9423L79.1127 72.6857L80.3275 76.4263H84.2604H88.196L89.4109 72.6857L90.6284 68.9423L87.4457 66.6301L84.2604 64.3179Z" fill="black" stroke="black" stroke-width="0.801" stroke-miterlimit="10" stroke-linecap="round"/>
<path d="M72.1388 66.5553L75.0171 67.7488L77.8953 68.9423" fill="black"/>
<path d="M72.1388 66.5553L75.0171 67.7488L77.8953 68.9423" stroke="black" stroke-width="0.801" stroke-miterlimit="10" stroke-linecap="round"/>
<path d="M70.9078 58.783L74.0745 56.9007L77.2437 55.0183" fill="black"/>
<path d="M70.9078 58.783L74.0745 56.9007L77.2437 55.0183" stroke="black" stroke-width="0.801" stroke-miterlimit="10" stroke-linecap="round"/>
<path d="M83.868 59.2662L84.0656 61.7921L84.2605 64.3179" fill="black"/>
<path d="M83.868 59.2662L84.0656 61.7921L84.2605 64.3179" stroke="black" stroke-width="0.801" stroke-miterlimit="10" stroke-linecap="round"/>
<path d="M95.8457 67.1401L93.2371 68.0426L90.6285 68.9424" fill="black"/>
<path d="M95.8457 67.1401L93.2371 68.0426L90.6285 68.9424" stroke="black" stroke-width="0.801" stroke-miterlimit="10" stroke-linecap="round"/>
<path d="M88.196 76.4263L89.8968 78.4448L91.5976 80.4633" fill="black"/>
<path d="M88.196 76.4263L89.8968 78.4448L91.5976 80.4633" stroke="black" stroke-width="0.801" stroke-miterlimit="10" stroke-linecap="round"/>
<path d="M80.3276 76.4263L78.8858 78.4448L77.444 80.4633" fill="black"/>
<path d="M80.3276 76.4263L78.8858 78.4448L77.444 80.4633" stroke="black" stroke-width="0.801" stroke-miterlimit="10" stroke-linecap="round"/>
<path d="M89.953 54.2787L92.5482 56.7912L95.1408 59.3036" fill="black"/>
<path d="M89.953 54.2787L92.5482 56.7912L95.1408 59.3036" stroke="black" stroke-width="0.801" stroke-miterlimit="10" stroke-linecap="round"/>
</g>
<path d="M60.0864 75.2753C59.951 76.1083 59.9179 76.9547 59.9876 77.7957C60.1338 79.5584 60.7382 81.2523 61.741 82.7093C62.7437 84.1664 64.1099 85.336 65.7041 86.1021" stroke="black" stroke-width="0.801" stroke-miterlimit="10" stroke-linecap="round"/>
<path d="M56.0093 79.7183C55.7533 80.9307 55.8938 82.1932 56.4102 83.3196C56.9265 84.4461 57.7913 85.3767 58.8769 85.9741" stroke="black" stroke-width="0.801" stroke-miterlimit="10" stroke-linecap="round"/>
<path d="M157.242 184.577C158.091 185.017 158.986 185.358 159.912 185.594C161.367 185.966 162.878 186.066 164.369 185.888C165.905 185.701 167.392 185.229 168.755 184.497C169.626 184.031 170.442 183.468 171.188 182.82" stroke="black" stroke-width="0.801" stroke-miterlimit="10" stroke-linecap="round"/>
<path d="M109.377 134.827L106.678 135.692L103.979 136.557" stroke="black" stroke-width="0.801" stroke-miterlimit="10" stroke-linecap="round"/>
</svg>
